<?xml version="1.0" encoding="utf-8"?>
<!-- Generator: Adobe Illustrator 27.0.0, SVG Export Plug-In . SVG Version: 6.00 Build 0)  -->
<svg version="1.1" xmlns="http://www.w3.org/2000/svg" xmlns:xlink="http://www.w3.org/1999/xlink" x="0px" y="0px" width="100px"
	 height="100px" viewBox="0 0 100 100" style="enable-background:new 0 0 100 100;" xml:space="preserve">
<style type="text/css">
	.st0{display:none;}
	.st1{display:inline;}
	.st2{fill:#CE0E2D;}
	.st3{fill:#002E6D;}
	.st4{fill:none;stroke:#000000;stroke-miterlimit:10;}
	.st5{fill:#E2E2E2;}
	.st6{fill:none;stroke:#E2E2E2;stroke-width:0.5;stroke-miterlimit:10;}
</style>
<g id="Layer_1" class="st0">
	<g class="st1">
		<path class="st2" d="M20.1,9.8c0,2.9-2.4,5.3-5.3,5.3H1.5c-2.9,0-5.3-2.4-5.3-5.3V-3.5c0-2.9,2.4-5.3,5.3-5.3h13.4
			c2.9,0,5.3,2.4,5.3,5.3V9.8z"/>
		<path class="st3" d="M20.1,36.6c0,2.9-2.4,5.3-5.3,5.3H1.5c-2.9,0-5.3-2.4-5.3-5.3V23.3c0-2.9,2.4-5.3,5.3-5.3h13.4
			c2.9,0,5.3,2.4,5.3,5.3V36.6z"/>
		<path class="st3" d="M20.1,63.4c0,2.9-2.4,5.3-5.3,5.3H1.5c-2.9,0-5.3-2.4-5.3-5.3V50.1c0-2.9,2.4-5.3,5.3-5.3h13.4
			c2.9,0,5.3,2.4,5.3,5.3V63.4z"/>
		<path class="st3" d="M20.1,90.2c0,2.9-2.4,5.3-5.3,5.3H1.5c-2.9,0-5.3-2.4-5.3-5.3V76.9c0-2.9,2.4-5.3,5.3-5.3h13.4
			c2.9,0,5.3,2.4,5.3,5.3V90.2z"/>
		<path class="st2" d="M46.9,9.8c0,2.9-2.4,5.3-5.3,5.3H28.3c-2.9,0-5.3-2.4-5.3-5.3V-3.5c0-2.9,2.4-5.3,5.3-5.3h13.4
			c2.9,0,5.3,2.4,5.3,5.3V9.8z"/>
		<path class="st3" d="M46.9,36.6c0,2.9-2.4,5.3-5.3,5.3H28.3c-2.9,0-5.3-2.4-5.3-5.3V23.3c0-2.9,2.4-5.3,5.3-5.3h13.4
			c2.9,0,5.3,2.4,5.3,5.3V36.6z"/>
		<path class="st3" d="M46.9,63.4c0,2.9-2.4,5.3-5.3,5.3H28.3c-2.9,0-5.3-2.4-5.3-5.3V50.1c0-2.9,2.4-5.3,5.3-5.3h13.4
			c2.9,0,5.3,2.4,5.3,5.3V63.4z"/>
		<path class="st3" d="M46.9,90.2c0,2.9-2.4,5.3-5.3,5.3H28.3c-2.9,0-5.3-2.4-5.3-5.3V76.9c0-2.9,2.4-5.3,5.3-5.3h13.4
			c2.9,0,5.3,2.4,5.3,5.3V90.2z"/>
		<path class="st3" d="M73.7,9.8c0,2.9-2.4,5.3-5.3,5.3H55.1c-2.9,0-5.3-2.4-5.3-5.3V-3.5c0-2.9,2.4-5.3,5.3-5.3h13.4
			c2.9,0,5.3,2.4,5.3,5.3V9.8z"/>
		<path class="st3" d="M73.7,36.6c0,2.9-2.4,5.3-5.3,5.3H55.1c-2.9,0-5.3-2.4-5.3-5.3V23.3c0-2.9,2.4-5.3,5.3-5.3h13.4
			c2.9,0,5.3,2.4,5.3,5.3V36.6z"/>
		<path class="st3" d="M73.7,63.4c0,2.9-2.4,5.3-5.3,5.3H55.1c-2.9,0-5.3-2.4-5.3-5.3V50.1c0-2.9,2.4-5.3,5.3-5.3h13.4
			c2.9,0,5.3,2.4,5.3,5.3V63.4z"/>
		<path class="st3" d="M73.7,90.2c0,2.9-2.4,5.3-5.3,5.3H55.1c-2.9,0-5.3-2.4-5.3-5.3V76.9c0-2.9,2.4-5.3,5.3-5.3h13.4
			c2.9,0,5.3,2.4,5.3,5.3V90.2z"/>
		<path class="st3" d="M100.5,9.8c0,2.9-2.4,5.3-5.3,5.3H81.9c-2.9,0-5.3-2.4-5.3-5.3V-3.5c0-2.9,2.4-5.3,5.3-5.3h13.3
			c2.9,0,5.3,2.4,5.3,5.3V9.8z"/>
		<path class="st3" d="M100.5,36.6c0,2.9-2.4,5.3-5.3,5.3H81.9c-2.9,0-5.3-2.4-5.3-5.3V23.3c0-2.9,2.4-5.3,5.3-5.3h13.3
			c2.9,0,5.3,2.4,5.3,5.3V36.6z"/>
		<path class="st3" d="M100.5,63.4c0,2.9-2.4,5.3-5.3,5.3H81.9c-2.9,0-5.3-2.4-5.3-5.3V50.1c0-2.9,2.4-5.3,5.3-5.3h13.3
			c2.9,0,5.3,2.4,5.3,5.3V63.4z"/>
		<path class="st3" d="M100.5,90.2c0,2.9-2.4,5.3-5.3,5.3H81.9c-2.9,0-5.3-2.4-5.3-5.3V76.9c0-2.9,2.4-5.3,5.3-5.3h13.3
			c2.9,0,5.3,2.4,5.3,5.3V90.2z"/>
		<path class="st3" d="M46.9,117c0,2.9-2.4,5.3-5.3,5.3H28.3c-2.9,0-5.3-2.4-5.3-5.3v-13.4c0-2.9,2.4-5.3,5.3-5.3h13.4
			c2.9,0,5.3,2.4,5.3,5.3V117z"/>
		<path class="st3" d="M100.5,117c0,2.9-2.4,5.3-5.3,5.3H81.9c-2.9,0-5.3-2.4-5.3-5.3v-13.4c0-2.9,2.4-5.3,5.3-5.3h13.3
			c2.9,0,5.3,2.4,5.3,5.3V117z"/>
	</g>
</g>
<g id="Layer_1_copy">
	<rect x="-2.1" y="-1.4" class="st4" width="104.3" height="102.4"/>
	<g>
		<path class="st5" d="M32.7,30.7c0,0.6-0.5,1.1-1.1,1.1h-2.7c-0.6,0-1.1-0.5-1.1-1.1V28c0-0.6,0.5-1.1,1.1-1.1h2.7
			c0.6,0,1.1,0.5,1.1,1.1V30.7z"/>
		<path class="st6" d="M32.7,36.2c0,0.6-0.5,1.1-1.1,1.1h-2.7c-0.6,0-1.1-0.5-1.1-1.1v-2.7c0-0.6,0.5-1.1,1.1-1.1h2.7
			c0.6,0,1.1,0.5,1.1,1.1V36.2z"/>
		<path class="st6" d="M32.7,41.7c0,0.6-0.5,1.1-1.1,1.1h-2.7c-0.6,0-1.1-0.5-1.1-1.1V39c0-0.6,0.5-1.1,1.1-1.1h2.7
			c0.6,0,1.1,0.5,1.1,1.1V41.7z"/>
		<path class="st6" d="M32.7,47.2c0,0.6-0.5,1.1-1.1,1.1h-2.7c-0.6,0-1.1-0.5-1.1-1.1v-2.7c0-0.6,0.5-1.1,1.1-1.1h2.7
			c0.6,0,1.1,0.5,1.1,1.1V47.2z"/>
		<path class="st6" d="M32.7,52.7c0,0.6-0.5,1.1-1.1,1.1h-2.7c-0.6,0-1.1-0.5-1.1-1.1V50c0-0.6,0.5-1.1,1.1-1.1h2.7
			c0.6,0,1.1,0.5,1.1,1.1V52.7z"/>
		<path class="st5" d="M38.2,19.7c0,0.6-0.5,1.1-1.1,1.1h-2.7c-0.6,0-1.1-0.5-1.1-1.1V17c0-0.6,0.5-1.1,1.1-1.1h2.7
			c0.6,0,1.1,0.5,1.1,1.1V19.7z"/>
		<path class="st5" d="M38.2,25.2c0,0.6-0.5,1.1-1.1,1.1h-2.7c-0.6,0-1.1-0.5-1.1-1.1v-2.7c0-0.6,0.5-1.1,1.1-1.1h2.7
			c0.6,0,1.1,0.5,1.1,1.1V25.2z"/>
		<path class="st5" d="M38.2,30.7c0,0.6-0.5,1.1-1.1,1.1h-2.7c-0.6,0-1.1-0.5-1.1-1.1V28c0-0.6,0.5-1.1,1.1-1.1h2.7
			c0.6,0,1.1,0.5,1.1,1.1V30.7z"/>
		<path class="st5" d="M38.2,36.2c0,0.6-0.5,1.1-1.1,1.1h-2.7c-0.6,0-1.1-0.5-1.1-1.1v-2.7c0-0.6,0.5-1.1,1.1-1.1h2.7
			c0.6,0,1.1,0.5,1.1,1.1V36.2z"/>
		<path class="st6" d="M38.2,41.7c0,0.6-0.5,1.1-1.1,1.1h-2.7c-0.6,0-1.1-0.5-1.1-1.1V39c0-0.6,0.5-1.1,1.1-1.1h2.7
			c0.6,0,1.1,0.5,1.1,1.1V41.7z"/>
		<path class="st6" d="M38.2,47.2c0,0.6-0.5,1.1-1.1,1.1h-2.7c-0.6,0-1.1-0.5-1.1-1.1v-2.7c0-0.6,0.5-1.1,1.1-1.1h2.7
			c0.6,0,1.1,0.5,1.1,1.1V47.2z"/>
		<path class="st6" d="M38.2,52.7c0,0.6-0.5,1.1-1.1,1.1h-2.7c-0.6,0-1.1-0.5-1.1-1.1V50c0-0.6,0.5-1.1,1.1-1.1h2.7
			c0.6,0,1.1,0.5,1.1,1.1V52.7z"/>
		<path class="st6" d="M38.2,58.2c0,0.6-0.5,1.1-1.1,1.1h-2.7c-0.6,0-1.1-0.5-1.1-1.1v-2.7c0-0.6,0.5-1.1,1.1-1.1h2.7
			c0.6,0,1.1,0.5,1.1,1.1V58.2z"/>
		<path class="st5" d="M43.7,25.2c0,0.6-0.5,1.1-1.1,1.1h-2.7c-0.6,0-1.1-0.5-1.1-1.1v-2.7c0-0.6,0.5-1.1,1.1-1.1h2.7
			c0.6,0,1.1,0.5,1.1,1.1V25.2z"/>
		<path class="st5" d="M43.7,30.7c0,0.6-0.5,1.1-1.1,1.1h-2.7c-0.6,0-1.1-0.5-1.1-1.1V28c0-0.6,0.5-1.1,1.1-1.1h2.7
			c0.6,0,1.1,0.5,1.1,1.1V30.7z"/>
		<path class="st5" d="M43.7,36.2c0,0.6-0.5,1.1-1.1,1.1h-2.7c-0.6,0-1.1-0.5-1.1-1.1v-2.7c0-0.6,0.5-1.1,1.1-1.1h2.7
			c0.6,0,1.1,0.5,1.1,1.1V36.2z"/>
		<path class="st5" d="M43.7,41.7c0,0.6-0.5,1.1-1.1,1.1h-2.7c-0.6,0-1.1-0.5-1.1-1.1V39c0-0.6,0.5-1.1,1.1-1.1h2.7
			c0.6,0,1.1,0.5,1.1,1.1V41.7z"/>
		<path class="st6" d="M43.7,47.2c0,0.6-0.5,1.1-1.1,1.1h-2.7c-0.6,0-1.1-0.5-1.1-1.1v-2.7c0-0.6,0.5-1.1,1.1-1.1h2.7
			c0.6,0,1.1,0.5,1.1,1.1V47.2z"/>
		<path class="st6" d="M43.7,52.7c0,0.6-0.5,1.1-1.1,1.1h-2.7c-0.6,0-1.1-0.5-1.1-1.1V50c0-0.6,0.5-1.1,1.1-1.1h2.7
			c0.6,0,1.1,0.5,1.1,1.1V52.7z"/>
		<path class="st6" d="M43.7,58.2c0,0.6-0.5,1.1-1.1,1.1h-2.7c-0.6,0-1.1-0.5-1.1-1.1v-2.7c0-0.6,0.5-1.1,1.1-1.1h2.7
			c0.6,0,1.1,0.5,1.1,1.1V58.2z"/>
		<path class="st5" d="M49.2,19.7c0,0.6-0.5,1.1-1.1,1.1h-2.7c-0.6,0-1.1-0.5-1.1-1.1V17c0-0.6,0.5-1.1,1.1-1.1h2.7
			c0.6,0,1.1,0.5,1.1,1.1V19.7z"/>
		<path class="st5" d="M49.2,25.2c0,0.6-0.5,1.1-1.1,1.1h-2.7c-0.6,0-1.1-0.5-1.1-1.1v-2.7c0-0.6,0.5-1.1,1.1-1.1h2.7
			c0.6,0,1.1,0.5,1.1,1.1V25.2z"/>
		<path class="st5" d="M49.2,30.7c0,0.6-0.5,1.1-1.1,1.1h-2.7c-0.6,0-1.1-0.5-1.1-1.1V28c0-0.6,0.5-1.1,1.1-1.1h2.7
			c0.6,0,1.1,0.5,1.1,1.1V30.7z"/>
		<path class="st5" d="M49.2,36.2c0,0.6-0.5,1.1-1.1,1.1h-2.7c-0.6,0-1.1-0.5-1.1-1.1v-2.7c0-0.6,0.5-1.1,1.1-1.1h2.7
			c0.6,0,1.1,0.5,1.1,1.1V36.2z"/>
		<path class="st5" d="M49.2,41.7c0,0.6-0.5,1.1-1.1,1.1h-2.7c-0.6,0-1.1-0.5-1.1-1.1V39c0-0.6,0.5-1.1,1.1-1.1h2.7
			c0.6,0,1.1,0.5,1.1,1.1V41.7z"/>
		<path class="st6" d="M49.2,47.2c0,0.6-0.5,1.1-1.1,1.1h-2.7c-0.6,0-1.1-0.5-1.1-1.1v-2.7c0-0.6,0.5-1.1,1.1-1.1h2.7
			c0.6,0,1.1,0.5,1.1,1.1V47.2z"/>
		<path class="st6" d="M49.2,52.7c0,0.6-0.5,1.1-1.1,1.1h-2.7c-0.6,0-1.1-0.5-1.1-1.1V50c0-0.6,0.5-1.1,1.1-1.1h2.7
			c0.6,0,1.1,0.5,1.1,1.1V52.7z"/>
		<path class="st6" d="M49.2,58.2c0,0.6-0.5,1.1-1.1,1.1h-2.7c-0.6,0-1.1-0.5-1.1-1.1v-2.7c0-0.6,0.5-1.1,1.1-1.1h2.7
			c0.6,0,1.1,0.5,1.1,1.1V58.2z"/>
		<path class="st5" d="M54.7,19.7c0,0.6-0.5,1.1-1.1,1.1h-2.7c-0.6,0-1.1-0.5-1.1-1.1V17c0-0.6,0.5-1.1,1.1-1.1h2.7
			c0.6,0,1.1,0.5,1.1,1.1V19.7z"/>
		<path class="st5" d="M54.7,14.2c0,0.6-0.5,1.1-1.1,1.1h-2.7c-0.6,0-1.1-0.5-1.1-1.1v-2.7c0-0.6,0.5-1.1,1.1-1.1h2.7
			c0.6,0,1.1,0.5,1.1,1.1V14.2z"/>
		<path class="st5" d="M54.7,8.7c0,0.6-0.5,1.1-1.1,1.1h-2.7c-0.6,0-1.1-0.5-1.1-1.1V6c0-0.6,0.5-1.1,1.1-1.1h2.7
			c0.6,0,1.1,0.5,1.1,1.1V8.7z"/>
		<path class="st5" d="M54.7,25.2c0,0.6-0.5,1.1-1.1,1.1h-2.7c-0.6,0-1.1-0.5-1.1-1.1v-2.7c0-0.6,0.5-1.1,1.1-1.1h2.7
			c0.6,0,1.1,0.5,1.1,1.1V25.2z"/>
		<path class="st5" d="M54.7,30.7c0,0.6-0.5,1.1-1.1,1.1h-2.7c-0.6,0-1.1-0.5-1.1-1.1V28c0-0.6,0.5-1.1,1.1-1.1h2.7
			c0.6,0,1.1,0.5,1.1,1.1V30.7z"/>
		<path class="st5" d="M54.7,36.2c0,0.6-0.5,1.1-1.1,1.1h-2.7c-0.6,0-1.1-0.5-1.1-1.1v-2.7c0-0.6,0.5-1.1,1.1-1.1h2.7
			c0.6,0,1.1,0.5,1.1,1.1V36.2z"/>
		<path class="st6" d="M54.7,41.7c0,0.6-0.5,1.1-1.1,1.1h-2.7c-0.6,0-1.1-0.5-1.1-1.1V39c0-0.6,0.5-1.1,1.1-1.1h2.7
			c0.6,0,1.1,0.5,1.1,1.1V41.7z"/>
		<path class="st6" d="M54.7,47.2c0,0.6-0.5,1.1-1.1,1.1h-2.7c-0.6,0-1.1-0.5-1.1-1.1v-2.7c0-0.6,0.5-1.1,1.1-1.1h2.7
			c0.6,0,1.1,0.5,1.1,1.1V47.2z"/>
		<path class="st6" d="M54.7,52.7c0,0.6-0.5,1.1-1.1,1.1h-2.7c-0.6,0-1.1-0.5-1.1-1.1V50c0-0.6,0.5-1.1,1.1-1.1h2.7
			c0.6,0,1.1,0.5,1.1,1.1V52.7z"/>
		<path class="st6" d="M54.7,58.2c0,0.6-0.5,1.1-1.1,1.1h-2.7c-0.6,0-1.1-0.5-1.1-1.1v-2.7c0-0.6,0.5-1.1,1.1-1.1h2.7
			c0.6,0,1.1,0.5,1.1,1.1V58.2z"/>
		<path class="st5" d="M60.2,25.2c0,0.6-0.5,1.1-1.1,1.1h-2.7c-0.6,0-1.1-0.5-1.1-1.1v-2.7c0-0.6,0.5-1.1,1.1-1.1h2.7
			c0.6,0,1.1,0.5,1.1,1.1V25.2z"/>
		<path class="st5" d="M60.2,30.7c0,0.6-0.5,1.1-1.1,1.1h-2.7c-0.6,0-1.1-0.5-1.1-1.1V28c0-0.6,0.5-1.1,1.1-1.1h2.7
			c0.6,0,1.1,0.5,1.1,1.1V30.7z"/>
		<path class="st6" d="M60.2,36.2c0,0.6-0.5,1.1-1.1,1.1h-2.7c-0.6,0-1.1-0.5-1.1-1.1v-2.7c0-0.6,0.5-1.1,1.1-1.1h2.7
			c0.6,0,1.1,0.5,1.1,1.1V36.2z"/>
		<path class="st6" d="M60.2,41.7c0,0.6-0.5,1.1-1.1,1.1h-2.7c-0.6,0-1.1-0.5-1.1-1.1V39c0-0.6,0.5-1.1,1.1-1.1h2.7
			c0.6,0,1.1,0.5,1.1,1.1V41.7z"/>
		<path class="st6" d="M60.2,47.2c0,0.6-0.5,1.1-1.1,1.1h-2.7c-0.6,0-1.1-0.5-1.1-1.1v-2.7c0-0.6,0.5-1.1,1.1-1.1h2.7
			c0.6,0,1.1,0.5,1.1,1.1V47.2z"/>
		<path class="st6" d="M60.2,52.7c0,0.6-0.5,1.1-1.1,1.1h-2.7c-0.6,0-1.1-0.5-1.1-1.1V50c0-0.6,0.5-1.1,1.1-1.1h2.7
			c0.6,0,1.1,0.5,1.1,1.1V52.7z"/>
		<path class="st6" d="M60.2,58.2c0,0.6-0.5,1.1-1.1,1.1h-2.7c-0.6,0-1.1-0.5-1.1-1.1v-2.7c0-0.6,0.5-1.1,1.1-1.1h2.7
			c0.6,0,1.1,0.5,1.1,1.1V58.2z"/>
		<path class="st5" d="M65.7,19.7c0,0.6-0.5,1.1-1.1,1.1h-2.7c-0.6,0-1.1-0.5-1.1-1.1V17c0-0.6,0.5-1.1,1.1-1.1h2.7
			c0.6,0,1.1,0.5,1.1,1.1V19.7z"/>
		<path class="st5" d="M65.7,25.2c0,0.6-0.5,1.1-1.1,1.1h-2.7c-0.6,0-1.1-0.5-1.1-1.1v-2.7c0-0.6,0.5-1.1,1.1-1.1h2.7
			c0.6,0,1.1,0.5,1.1,1.1V25.2z"/>
		<path class="st5" d="M65.7,30.7c0,0.6-0.5,1.1-1.1,1.1h-2.7c-0.6,0-1.1-0.5-1.1-1.1V28c0-0.6,0.5-1.1,1.1-1.1h2.7
			c0.6,0,1.1,0.5,1.1,1.1V30.7z"/>
		<path class="st6" d="M65.7,36.2c0,0.6-0.5,1.1-1.1,1.1h-2.7c-0.6,0-1.1-0.5-1.1-1.1v-2.7c0-0.6,0.5-1.1,1.1-1.1h2.7
			c0.6,0,1.1,0.5,1.1,1.1V36.2z"/>
		<path class="st6" d="M65.7,41.7c0,0.6-0.5,1.1-1.1,1.1h-2.7c-0.6,0-1.1-0.5-1.1-1.1V39c0-0.6,0.5-1.1,1.1-1.1h2.7
			c0.6,0,1.1,0.5,1.1,1.1V41.7z"/>
		<path class="st6" d="M65.7,47.2c0,0.6-0.5,1.1-1.1,1.1h-2.7c-0.6,0-1.1-0.5-1.1-1.1v-2.7c0-0.6,0.5-1.1,1.1-1.1h2.7
			c0.6,0,1.1,0.5,1.1,1.1V47.2z"/>
		<path class="st6" d="M65.7,52.7c0,0.6-0.5,1.1-1.1,1.1h-2.7c-0.6,0-1.1-0.5-1.1-1.1V50c0-0.6,0.5-1.1,1.1-1.1h2.7
			c0.6,0,1.1,0.5,1.1,1.1V52.7z"/>
		<path class="st6" d="M65.7,58.2c0,0.6-0.5,1.1-1.1,1.1h-2.7c-0.6,0-1.1-0.5-1.1-1.1v-2.7c0-0.6,0.5-1.1,1.1-1.1h2.7
			c0.6,0,1.1,0.5,1.1,1.1V58.2z"/>
		<path class="st5" d="M76.7,36.2c0,0.6-0.5,1.1-1.1,1.1h-2.7c-0.6,0-1.1-0.5-1.1-1.1v-2.7c0-0.6,0.5-1.1,1.1-1.1h2.7
			c0.6,0,1.1,0.5,1.1,1.1V36.2z"/>
		<path class="st6" d="M76.7,41.7c0,0.6-0.5,1.1-1.1,1.1h-2.7c-0.6,0-1.1-0.5-1.1-1.1V39c0-0.6,0.5-1.1,1.1-1.1h2.7
			c0.6,0,1.1,0.5,1.1,1.1V41.7z"/>
		<path class="st5" d="M71.2,30.7c0,0.6-0.5,1.1-1.1,1.1h-2.7c-0.6,0-1.1-0.5-1.1-1.1V28c0-0.6,0.5-1.1,1.1-1.1h2.7
			c0.6,0,1.1,0.5,1.1,1.1V30.7z"/>
		<path class="st5" d="M71.2,36.2c0,0.6-0.5,1.1-1.1,1.1h-2.7c-0.6,0-1.1-0.5-1.1-1.1v-2.7c0-0.6,0.5-1.1,1.1-1.1h2.7
			c0.6,0,1.1,0.5,1.1,1.1V36.2z"/>
		<path class="st6" d="M71.2,41.7c0,0.6-0.5,1.1-1.1,1.1h-2.7c-0.6,0-1.1-0.5-1.1-1.1V39c0-0.6,0.5-1.1,1.1-1.1h2.7
			c0.6,0,1.1,0.5,1.1,1.1V41.7z"/>
		<path class="st6" d="M71.2,47.2c0,0.6-0.5,1.1-1.1,1.1h-2.7c-0.6,0-1.1-0.5-1.1-1.1v-2.7c0-0.6,0.5-1.1,1.1-1.1h2.7
			c0.6,0,1.1,0.5,1.1,1.1V47.2z"/>
		<path class="st6" d="M71.2,52.7c0,0.6-0.5,1.1-1.1,1.1h-2.7c-0.6,0-1.1-0.5-1.1-1.1V50c0-0.6,0.5-1.1,1.1-1.1h2.7
			c0.6,0,1.1,0.5,1.1,1.1V52.7z"/>
		<path class="st6" d="M27.2,41.7c0,0.6-0.5,1.1-1.1,1.1h-2.7c-0.6,0-1.1-0.5-1.1-1.1V39c0-0.6,0.5-1.1,1.1-1.1h2.7
			c0.6,0,1.1,0.5,1.1,1.1V41.7z"/>
		<path class="st6" d="M49.2,63.7c0,0.6-0.5,1.1-1.1,1.1h-2.7c-0.6,0-1.1-0.5-1.1-1.1V61c0-0.6,0.5-1.1,1.1-1.1h2.7
			c0.6,0,1.1,0.5,1.1,1.1V63.7z"/>
		<path class="st6" d="M60.2,69.2c0,0.6-0.5,1.1-1.1,1.1h-2.7c-0.6,0-1.1-0.5-1.1-1.1v-2.7c0-0.6,0.5-1.1,1.1-1.1h2.7
			c0.6,0,1.1,0.5,1.1,1.1V69.2z"/>
		<path class="st6" d="M60.2,63.7c0,0.6-0.5,1.1-1.1,1.1h-2.7c-0.6,0-1.1-0.5-1.1-1.1V61c0-0.6,0.5-1.1,1.1-1.1h2.7
			c0.6,0,1.1,0.5,1.1,1.1V63.7z"/>
		<path class="st6" d="M65.7,63.7c0,0.6-0.5,1.1-1.1,1.1h-2.7c-0.6,0-1.1-0.5-1.1-1.1V61c0-0.6,0.5-1.1,1.1-1.1h2.7
			c0.6,0,1.1,0.5,1.1,1.1V63.7z"/>
	</g>
	<g>
		<g>
			<path class="st5" d="M48.8,79.3c0.7,0.7,1.1,1.5,1.1,2.4v4v0.1c0,0.9-0.4,1.8-1.1,2.4c-0.7,0.7-1.6,1-2.6,1H46
				c-1,0-1.9-0.3-2.6-1c-0.7-0.7-1.1-1.5-1.1-2.4v-0.1c0-1,0.4-1.8,1.1-2.4c0.7-0.7,1.6-1,2.6-1h0.2c0.7,0,1.4,0.2,2,0.5
				c0.2,0.1,0.4,0.2,0.6,0.4c0.2,0.1,0.3,0.2,0.3,0.3v-1.7c0-0.7-0.3-1.3-0.8-1.8c-0.5-0.5-1.2-0.8-2-0.7c-0.8,0-1.4,0.2-2,0.7
				c-0.3,0.3-0.5,0.6-0.7,0.9c-0.1,0.3-0.2,0.7-0.2,1.1h-0.9c0-0.5,0.1-1,0.3-1.4s0.5-0.8,0.9-1.2c0.7-0.7,1.6-1,2.6-1
				S48.1,78.6,48.8,79.3z M43.9,83.9c-0.5,0.5-0.8,1.1-0.8,1.8v0.1c0,0.7,0.3,1.3,0.8,1.8c0.6,0.5,1.2,0.8,2,0.7h0.2
				c0.8,0,1.5-0.3,2-0.8c0.5-0.5,0.8-1.1,0.8-1.8v-0.1c0-0.7-0.3-1.3-0.8-1.8c-0.5-0.5-1.2-0.8-2-0.7H46
				C45.2,83.1,44.5,83.4,43.9,83.9z"/>
			<path class="st5" d="M52.5,74.4V89h-0.9V74.4H52.5z"/>
			<path class="st5" d="M57.8,89.2c-1,0-1.9-0.3-2.6-1c-0.7-0.7-1.1-1.5-1.1-2.4v-0.1v-4v-7.1H55v4.8c0,0,0.1-0.1,0.3-0.3
				c0.2-0.2,0.4-0.3,0.6-0.4c0.6-0.3,1.3-0.5,2-0.5H58c1,0,1.9,0.3,2.6,1c0.7,0.7,1.1,1.5,1.1,2.4v4.1c0,0.9-0.4,1.8-1.1,2.4
				c-0.7,0.7-1.6,1-2.6,1H57.8z M60.1,87.6c0.5-0.5,0.8-1.1,0.8-1.8v-4.1c0-0.7-0.3-1.3-0.8-1.8c-0.5-0.5-1.2-0.8-2-0.7h-0.2
				c-0.8,0-1.4,0.2-2,0.8C55.2,80.4,55,81,55,81.7v4v0.1c0,0.7,0.3,1.3,0.8,1.8c0.6,0.5,1.2,0.8,2,0.7H58h0.1
				C58.9,88.4,59.5,88.1,60.1,87.6z"/>
			<path class="st5" d="M64,78.5v7.3c0,0.7,0.3,1.3,0.8,1.8c0.5,0.5,1.2,0.8,2,0.7h0.2c0.8,0,1.5-0.3,2-0.8c0.5-0.5,0.8-1.1,0.8-1.8
				v-7.3h0.9v7.3c0,0.9-0.4,1.8-1.1,2.4c-0.7,0.7-1.6,1-2.6,1h-0.2c-1,0-1.9-0.3-2.7-1c-0.7-0.7-1.1-1.5-1.1-2.4v-7.3H64z"/>
			<path class="st5" d="M72.2,81.7c0-1,0.3-1.8,1-2.4s1.5-1,2.6-1c0.8,0,1.5,0.2,2.1,0.6c0.2,0.1,0.4,0.3,0.6,0.5
				c0.2,0.2,0.3,0.4,0.4,0.5c0.1-0.1,0.2-0.3,0.4-0.5c0.2-0.2,0.4-0.4,0.6-0.5c0.6-0.4,1.3-0.6,2.1-0.6c1,0,1.9,0.3,2.6,1
				c0.7,0.7,1,1.5,1,2.4V89h-0.9v-7.3c0-0.7-0.3-1.4-0.8-1.9c-0.5-0.5-1.1-0.7-1.9-0.7c-0.8,0-1.4,0.2-1.9,0.7
				c-0.5,0.5-0.7,1.1-0.8,1.8v0V89h-0.9v-7.3v0c0-0.7-0.3-1.3-0.8-1.8c-0.5-0.5-1.1-0.7-1.9-0.7c-0.8,0-1.4,0.2-1.9,0.7
				c-0.5,0.5-0.7,1.1-0.7,1.8V89h-0.9V81.7z"/>
			<path class="st5" d="M90.6,78.2c1,0,1.8,0.2,2.4,0.6c0.4,0.2,0.6,0.5,0.9,0.9c0.2,0.4,0.4,0.9,0.4,1.4h-0.9c0-0.4-0.1-0.7-0.3-1
				c-0.1-0.2-0.3-0.4-0.6-0.6c-0.5-0.3-1.1-0.5-1.8-0.5c-0.8,0-1.4,0.2-1.9,0.5c-0.5,0.3-0.8,0.8-0.8,1.3c0,0.4,0.2,0.8,0.5,1.1
				c0.2,0.1,0.6,0.3,1.1,0.5c0.3,0.1,0.7,0.3,1.3,0.4c0.6,0.1,1,0.3,1.2,0.3c0.9,0.3,1.6,0.7,2.1,1.2c0.4,0.5,0.6,1.2,0.5,2
				c-0.1,0.9-0.5,1.6-1.1,2.1c-0.6,0.5-1.5,0.7-2.7,0.7c-1.1,0-2-0.3-2.6-0.8c-0.3-0.3-0.6-0.6-0.8-0.9c-0.2-0.4-0.3-0.8-0.4-1.4
				l0.9,0c0,0.4,0.1,0.8,0.3,1.1c0.1,0.2,0.3,0.5,0.5,0.6c0.5,0.4,1.2,0.6,2,0.6c0.9,0,1.6-0.2,2-0.5c0.5-0.4,0.8-0.9,0.8-1.6
				c0.1-0.6,0-1-0.3-1.4c-0.3-0.4-0.9-0.7-1.6-0.9c-0.2,0-0.5-0.2-1.1-0.3c-0.6-0.2-1-0.3-1.4-0.4c-0.7-0.2-1.1-0.5-1.4-0.6
				c-0.6-0.5-0.9-1.1-0.9-1.7c0-0.8,0.4-1.5,1.2-2C88.8,78.5,89.6,78.2,90.6,78.2z"/>
		</g>
		<g>
			<path class="st5" d="M21.9,79.3c0.7,0.7,1.1,1.5,1.1,2.4v4.1c0,0.9-0.4,1.8-1.1,2.4c-0.7,0.7-1.6,1-2.6,1H19
				c-0.7,0-1.4-0.2-2-0.5c-0.2-0.1-0.4-0.2-0.6-0.4c-0.2-0.2-0.3-0.3-0.3-0.3v4.9h-0.9v-7.1v-4v-0.1c0-1,0.4-1.8,1.1-2.4
				c0.7-0.7,1.6-1,2.6-1h0.2C20.3,78.3,21.2,78.6,21.9,79.3z M19.3,79.1H19c-0.8,0-1.4,0.2-2,0.8c-0.5,0.5-0.8,1.1-0.8,1.8v0.1v4
				c0,0.7,0.3,1.3,0.8,1.8c0.6,0.5,1.2,0.8,2,0.7h0.2c0.8,0,1.5-0.3,2-0.8c0.5-0.5,0.8-1.1,0.8-1.8v-4.1c0-0.7-0.3-1.3-0.8-1.8
				C20.8,79.4,20.1,79.1,19.3,79.1L19.3,79.1z"/>
			<path class="st5" d="M28.3,78.3c1,0,1.9,0.3,2.6,1c0.7,0.7,1.1,1.5,1.1,2.4v4.1c0,0.9-0.4,1.8-1.1,2.4c-0.7,0.7-1.6,1-2.6,1h-0.2
				c-1,0-1.9-0.3-2.6-1c-0.7-0.7-1.1-1.5-1.1-2.4v-4.1c0-1,0.4-1.8,1.1-2.4c0.7-0.7,1.6-1,2.6-1H28.3z M26.1,79.9
				c-0.5,0.5-0.8,1.1-0.8,1.8v4.1c0,0.7,0.3,1.3,0.8,1.8c0.6,0.5,1.2,0.8,2,0.7h0.2c0.8,0,1.5-0.3,2-0.8c0.5-0.5,0.8-1.1,0.8-1.8
				v-4.1c0-0.7-0.3-1.3-0.8-1.8c-0.5-0.5-1.2-0.8-2-0.7h-0.2C27.3,79.1,26.6,79.4,26.1,79.9z"/>
			<path class="st5" d="M40,79.3c0.7,0.7,1.1,1.5,1.1,2.4v4.1c0,0.9-0.4,1.8-1.1,2.4c-0.7,0.7-1.6,1-2.6,1h-0.2
				c-0.7,0-1.4-0.2-2-0.5c-0.2-0.1-0.4-0.2-0.6-0.4c-0.2-0.2-0.3-0.3-0.3-0.3v4.9h-0.9v-7.1v-4v-0.1c0-1,0.4-1.8,1.1-2.4
				c0.7-0.7,1.6-1,2.6-1h0.2C38.4,78.3,39.3,78.6,40,79.3z M37.4,79.1h-0.2c-0.8,0-1.4,0.2-2,0.8c-0.5,0.5-0.8,1.1-0.8,1.8v0.1v4
				c0,0.7,0.3,1.3,0.8,1.8c0.6,0.5,1.2,0.8,2,0.7h0.2c0.8,0,1.5-0.3,2-0.8c0.5-0.5,0.8-1.1,0.8-1.8v-4.1c0-0.7-0.3-1.3-0.8-1.8
				C38.9,79.4,38.2,79.1,37.4,79.1L37.4,79.1z"/>
		</g>
		<g>
			<g>
				<path class="st5" d="M7.6,74.7v10.1l5.5-6h1.2l-5,5.3l5.4,5.2h-1.3l-4.7-4.6l-1.2,1.2v3.4H6.7V74.7H7.6z"/>
			</g>
		</g>
	</g>
</g>
<g id="Layer_1_copy_2" class="st0">
	<g class="st1">
		<path class="st2" d="M20.1,9.8c0,2.9-2.4,5.3-5.3,5.3H1.5c-2.9,0-5.3-2.4-5.3-5.3V-3.5c0-2.9,2.4-5.3,5.3-5.3h13.4
			c2.9,0,5.3,2.4,5.3,5.3V9.8z"/>
		<path class="st3" d="M20.1,36.6c0,2.9-2.4,5.3-5.3,5.3H1.5c-2.9,0-5.3-2.4-5.3-5.3V23.3c0-2.9,2.4-5.3,5.3-5.3h13.4
			c2.9,0,5.3,2.4,5.3,5.3V36.6z"/>
		<path class="st3" d="M20.1,63.4c0,2.9-2.4,5.3-5.3,5.3H1.5c-2.9,0-5.3-2.4-5.3-5.3V50.1c0-2.9,2.4-5.3,5.3-5.3h13.4
			c2.9,0,5.3,2.4,5.3,5.3V63.4z"/>
		<path class="st3" d="M20.1,90.2c0,2.9-2.4,5.3-5.3,5.3H1.5c-2.9,0-5.3-2.4-5.3-5.3V76.9c0-2.9,2.4-5.3,5.3-5.3h13.4
			c2.9,0,5.3,2.4,5.3,5.3V90.2z"/>
		<path class="st2" d="M46.9,9.8c0,2.9-2.4,5.3-5.3,5.3H28.3c-2.9,0-5.3-2.4-5.3-5.3V-3.5c0-2.9,2.4-5.3,5.3-5.3h13.4
			c2.9,0,5.3,2.4,5.3,5.3V9.8z"/>
		<path class="st3" d="M46.9,36.6c0,2.9-2.4,5.3-5.3,5.3H28.3c-2.9,0-5.3-2.4-5.3-5.3V23.3c0-2.9,2.4-5.3,5.3-5.3h13.4
			c2.9,0,5.3,2.4,5.3,5.3V36.6z"/>
		<path class="st3" d="M46.9,63.4c0,2.9-2.4,5.3-5.3,5.3H28.3c-2.9,0-5.3-2.4-5.3-5.3V50.1c0-2.9,2.4-5.3,5.3-5.3h13.4
			c2.9,0,5.3,2.4,5.3,5.3V63.4z"/>
		<path class="st3" d="M46.9,90.2c0,2.9-2.4,5.3-5.3,5.3H28.3c-2.9,0-5.3-2.4-5.3-5.3V76.9c0-2.9,2.4-5.3,5.3-5.3h13.4
			c2.9,0,5.3,2.4,5.3,5.3V90.2z"/>
		<path class="st3" d="M73.7,9.8c0,2.9-2.4,5.3-5.3,5.3H55.1c-2.9,0-5.3-2.4-5.3-5.3V-3.5c0-2.9,2.4-5.3,5.3-5.3h13.4
			c2.9,0,5.3,2.4,5.3,5.3V9.8z"/>
		<path class="st3" d="M73.7,36.6c0,2.9-2.4,5.3-5.3,5.3H55.1c-2.9,0-5.3-2.4-5.3-5.3V23.3c0-2.9,2.4-5.3,5.3-5.3h13.4
			c2.9,0,5.3,2.4,5.3,5.3V36.6z"/>
		<path class="st3" d="M73.7,63.4c0,2.9-2.4,5.3-5.3,5.3H55.1c-2.9,0-5.3-2.4-5.3-5.3V50.1c0-2.9,2.4-5.3,5.3-5.3h13.4
			c2.9,0,5.3,2.4,5.3,5.3V63.4z"/>
		<path class="st3" d="M73.7,90.2c0,2.9-2.4,5.3-5.3,5.3H55.1c-2.9,0-5.3-2.4-5.3-5.3V76.9c0-2.9,2.4-5.3,5.3-5.3h13.4
			c2.9,0,5.3,2.4,5.3,5.3V90.2z"/>
		<path class="st3" d="M100.5,9.8c0,2.9-2.4,5.3-5.3,5.3H81.9c-2.9,0-5.3-2.4-5.3-5.3V-3.5c0-2.9,2.4-5.3,5.3-5.3h13.3
			c2.9,0,5.3,2.4,5.3,5.3V9.8z"/>
		<path class="st3" d="M100.5,36.6c0,2.9-2.4,5.3-5.3,5.3H81.9c-2.9,0-5.3-2.4-5.3-5.3V23.3c0-2.9,2.4-5.3,5.3-5.3h13.3
			c2.9,0,5.3,2.4,5.3,5.3V36.6z"/>
		<path class="st3" d="M100.5,63.4c0,2.9-2.4,5.3-5.3,5.3H81.9c-2.9,0-5.3-2.4-5.3-5.3V50.1c0-2.9,2.4-5.3,5.3-5.3h13.3
			c2.9,0,5.3,2.4,5.3,5.3V63.4z"/>
		<path class="st3" d="M100.5,90.2c0,2.9-2.4,5.3-5.3,5.3H81.9c-2.9,0-5.3-2.4-5.3-5.3V76.9c0-2.9,2.4-5.3,5.3-5.3h13.3
			c2.9,0,5.3,2.4,5.3,5.3V90.2z"/>
		<path class="st3" d="M46.9,117c0,2.9-2.4,5.3-5.3,5.3H28.3c-2.9,0-5.3-2.4-5.3-5.3v-13.4c0-2.9,2.4-5.3,5.3-5.3h13.4
			c2.9,0,5.3,2.4,5.3,5.3V117z"/>
		<path class="st3" d="M100.5,117c0,2.9-2.4,5.3-5.3,5.3H81.9c-2.9,0-5.3-2.4-5.3-5.3v-13.4c0-2.9,2.4-5.3,5.3-5.3h13.3
			c2.9,0,5.3,2.4,5.3,5.3V117z"/>
	</g>
</g>
<g id="Layer_1_copy_3" class="st0">
	<g class="st1">
		<path class="st2" d="M20.1,9.8c0,2.9-2.4,5.3-5.3,5.3H1.5c-2.9,0-5.3-2.4-5.3-5.3V-3.5c0-2.9,2.4-5.3,5.3-5.3h13.4
			c2.9,0,5.3,2.4,5.3,5.3V9.8z"/>
		<path class="st3" d="M20.1,36.6c0,2.9-2.4,5.3-5.3,5.3H1.5c-2.9,0-5.3-2.4-5.3-5.3V23.3c0-2.9,2.4-5.3,5.3-5.3h13.4
			c2.9,0,5.3,2.4,5.3,5.3V36.6z"/>
		<path class="st3" d="M20.1,63.4c0,2.9-2.4,5.3-5.3,5.3H1.5c-2.9,0-5.3-2.4-5.3-5.3V50.1c0-2.9,2.4-5.3,5.3-5.3h13.4
			c2.9,0,5.3,2.4,5.3,5.3V63.4z"/>
		<path class="st3" d="M20.1,90.2c0,2.9-2.4,5.3-5.3,5.3H1.5c-2.9,0-5.3-2.4-5.3-5.3V76.9c0-2.9,2.4-5.3,5.3-5.3h13.4
			c2.9,0,5.3,2.4,5.3,5.3V90.2z"/>
		<path class="st2" d="M46.9,9.8c0,2.9-2.4,5.3-5.3,5.3H28.3c-2.9,0-5.3-2.4-5.3-5.3V-3.5c0-2.9,2.4-5.3,5.3-5.3h13.4
			c2.9,0,5.3,2.4,5.3,5.3V9.8z"/>
		<path class="st3" d="M46.9,36.6c0,2.9-2.4,5.3-5.3,5.3H28.3c-2.9,0-5.3-2.4-5.3-5.3V23.3c0-2.9,2.4-5.3,5.3-5.3h13.4
			c2.9,0,5.3,2.4,5.3,5.3V36.6z"/>
		<path class="st3" d="M46.9,63.4c0,2.9-2.4,5.3-5.3,5.3H28.3c-2.9,0-5.3-2.4-5.3-5.3V50.1c0-2.9,2.4-5.3,5.3-5.3h13.4
			c2.9,0,5.3,2.4,5.3,5.3V63.4z"/>
		<path class="st3" d="M46.9,90.2c0,2.9-2.4,5.3-5.3,5.3H28.3c-2.9,0-5.3-2.4-5.3-5.3V76.9c0-2.9,2.4-5.3,5.3-5.3h13.4
			c2.9,0,5.3,2.4,5.3,5.3V90.2z"/>
		<path class="st3" d="M73.7,9.8c0,2.9-2.4,5.3-5.3,5.3H55.1c-2.9,0-5.3-2.4-5.3-5.3V-3.5c0-2.9,2.4-5.3,5.3-5.3h13.4
			c2.9,0,5.3,2.4,5.3,5.3V9.8z"/>
		<path class="st3" d="M73.7,36.6c0,2.9-2.4,5.3-5.3,5.3H55.1c-2.9,0-5.3-2.4-5.3-5.3V23.3c0-2.9,2.4-5.3,5.3-5.3h13.4
			c2.9,0,5.3,2.4,5.3,5.3V36.6z"/>
		<path class="st3" d="M73.7,63.4c0,2.9-2.4,5.3-5.3,5.3H55.1c-2.9,0-5.3-2.4-5.3-5.3V50.1c0-2.9,2.4-5.3,5.3-5.3h13.4
			c2.9,0,5.3,2.4,5.3,5.3V63.4z"/>
		<path class="st3" d="M73.7,90.2c0,2.9-2.4,5.3-5.3,5.3H55.1c-2.9,0-5.3-2.4-5.3-5.3V76.9c0-2.9,2.4-5.3,5.3-5.3h13.4
			c2.9,0,5.3,2.4,5.3,5.3V90.2z"/>
		<path class="st3" d="M100.5,9.8c0,2.9-2.4,5.3-5.3,5.3H81.9c-2.9,0-5.3-2.4-5.3-5.3V-3.5c0-2.9,2.4-5.3,5.3-5.3h13.3
			c2.9,0,5.3,2.4,5.3,5.3V9.8z"/>
		<path class="st3" d="M100.5,36.6c0,2.9-2.4,5.3-5.3,5.3H81.9c-2.9,0-5.3-2.4-5.3-5.3V23.3c0-2.9,2.4-5.3,5.3-5.3h13.3
			c2.9,0,5.3,2.4,5.3,5.3V36.6z"/>
		<path class="st3" d="M100.5,63.4c0,2.9-2.4,5.3-5.3,5.3H81.9c-2.9,0-5.3-2.4-5.3-5.3V50.1c0-2.9,2.4-5.3,5.3-5.3h13.3
			c2.9,0,5.3,2.4,5.3,5.3V63.4z"/>
		<path class="st3" d="M100.5,90.2c0,2.9-2.4,5.3-5.3,5.3H81.9c-2.9,0-5.3-2.4-5.3-5.3V76.9c0-2.9,2.4-5.3,5.3-5.3h13.3
			c2.9,0,5.3,2.4,5.3,5.3V90.2z"/>
		<path class="st3" d="M46.9,117c0,2.9-2.4,5.3-5.3,5.3H28.3c-2.9,0-5.3-2.4-5.3-5.3v-13.4c0-2.9,2.4-5.3,5.3-5.3h13.4
			c2.9,0,5.3,2.4,5.3,5.3V117z"/>
		<path class="st3" d="M100.5,117c0,2.9-2.4,5.3-5.3,5.3H81.9c-2.9,0-5.3-2.4-5.3-5.3v-13.4c0-2.9,2.4-5.3,5.3-5.3h13.3
			c2.9,0,5.3,2.4,5.3,5.3V117z"/>
	</g>
</g>
<g id="Layer_1_copy_4" class="st0">
	<g class="st1">
		<path class="st2" d="M20.1,9.8c0,2.9-2.4,5.3-5.3,5.3H1.5c-2.9,0-5.3-2.4-5.3-5.3V-3.5c0-2.9,2.4-5.3,5.3-5.3h13.4
			c2.9,0,5.3,2.4,5.3,5.3V9.8z"/>
		<path class="st3" d="M20.1,36.6c0,2.9-2.4,5.3-5.3,5.3H1.5c-2.9,0-5.3-2.4-5.3-5.3V23.3c0-2.9,2.4-5.3,5.3-5.3h13.4
			c2.9,0,5.3,2.4,5.3,5.3V36.6z"/>
		<path class="st3" d="M20.1,63.4c0,2.9-2.4,5.3-5.3,5.3H1.5c-2.9,0-5.3-2.4-5.3-5.3V50.1c0-2.9,2.4-5.3,5.3-5.3h13.4
			c2.9,0,5.3,2.4,5.3,5.3V63.4z"/>
		<path class="st3" d="M20.1,90.2c0,2.9-2.4,5.3-5.3,5.3H1.5c-2.9,0-5.3-2.4-5.3-5.3V76.9c0-2.9,2.4-5.3,5.3-5.3h13.4
			c2.9,0,5.3,2.4,5.3,5.3V90.2z"/>
		<path class="st2" d="M46.9,9.8c0,2.9-2.4,5.3-5.3,5.3H28.3c-2.9,0-5.3-2.4-5.3-5.3V-3.5c0-2.9,2.4-5.3,5.3-5.3h13.4
			c2.9,0,5.3,2.4,5.3,5.3V9.8z"/>
		<path class="st3" d="M46.9,36.6c0,2.9-2.4,5.3-5.3,5.3H28.3c-2.9,0-5.3-2.4-5.3-5.3V23.3c0-2.9,2.4-5.3,5.3-5.3h13.4
			c2.9,0,5.3,2.4,5.3,5.3V36.6z"/>
		<path class="st3" d="M46.9,63.4c0,2.9-2.4,5.3-5.3,5.3H28.3c-2.9,0-5.3-2.4-5.3-5.3V50.1c0-2.9,2.4-5.3,5.3-5.3h13.4
			c2.9,0,5.3,2.4,5.3,5.3V63.4z"/>
		<path class="st3" d="M46.9,90.2c0,2.9-2.4,5.3-5.3,5.3H28.3c-2.9,0-5.3-2.4-5.3-5.3V76.9c0-2.9,2.4-5.3,5.3-5.3h13.4
			c2.9,0,5.3,2.4,5.3,5.3V90.2z"/>
		<path class="st3" d="M73.7,9.8c0,2.9-2.4,5.3-5.3,5.3H55.1c-2.9,0-5.3-2.4-5.3-5.3V-3.5c0-2.9,2.4-5.3,5.3-5.3h13.4
			c2.9,0,5.3,2.4,5.3,5.3V9.8z"/>
		<path class="st3" d="M73.7,36.6c0,2.9-2.4,5.3-5.3,5.3H55.1c-2.9,0-5.3-2.4-5.3-5.3V23.3c0-2.9,2.4-5.3,5.3-5.3h13.4
			c2.9,0,5.3,2.4,5.3,5.3V36.6z"/>
		<path class="st3" d="M73.7,63.4c0,2.9-2.4,5.3-5.3,5.3H55.1c-2.9,0-5.3-2.4-5.3-5.3V50.1c0-2.9,2.4-5.3,5.3-5.3h13.4
			c2.9,0,5.3,2.4,5.3,5.3V63.4z"/>
		<path class="st3" d="M73.7,90.2c0,2.9-2.4,5.3-5.3,5.3H55.1c-2.9,0-5.3-2.4-5.3-5.3V76.9c0-2.9,2.4-5.3,5.3-5.3h13.4
			c2.9,0,5.3,2.4,5.3,5.3V90.2z"/>
		<path class="st3" d="M100.5,9.8c0,2.9-2.4,5.3-5.3,5.3H81.9c-2.9,0-5.3-2.4-5.3-5.3V-3.5c0-2.9,2.4-5.3,5.3-5.3h13.3
			c2.9,0,5.3,2.4,5.3,5.3V9.8z"/>
		<path class="st3" d="M100.5,36.6c0,2.9-2.4,5.3-5.3,5.3H81.9c-2.9,0-5.3-2.4-5.3-5.3V23.3c0-2.9,2.4-5.3,5.3-5.3h13.3
			c2.9,0,5.3,2.4,5.3,5.3V36.6z"/>
		<path class="st3" d="M100.5,63.4c0,2.9-2.4,5.3-5.3,5.3H81.9c-2.9,0-5.3-2.4-5.3-5.3V50.1c0-2.9,2.4-5.3,5.3-5.3h13.3
			c2.9,0,5.3,2.4,5.3,5.3V63.4z"/>
		<path class="st3" d="M100.5,90.2c0,2.9-2.4,5.3-5.3,5.3H81.9c-2.9,0-5.3-2.4-5.3-5.3V76.9c0-2.9,2.4-5.3,5.3-5.3h13.3
			c2.9,0,5.3,2.4,5.3,5.3V90.2z"/>
		<path class="st3" d="M46.9,117c0,2.9-2.4,5.3-5.3,5.3H28.3c-2.9,0-5.3-2.4-5.3-5.3v-13.4c0-2.9,2.4-5.3,5.3-5.3h13.4
			c2.9,0,5.3,2.4,5.3,5.3V117z"/>
		<path class="st3" d="M100.5,117c0,2.9-2.4,5.3-5.3,5.3H81.9c-2.9,0-5.3-2.4-5.3-5.3v-13.4c0-2.9,2.4-5.3,5.3-5.3h13.3
			c2.9,0,5.3,2.4,5.3,5.3V117z"/>
	</g>
</g>
<g id="Layer_1_copy_5" class="st0">
	<g class="st1">
		<path class="st2" d="M20.1,9.8c0,2.9-2.4,5.3-5.3,5.3H1.5c-2.9,0-5.3-2.4-5.3-5.3V-3.5c0-2.9,2.4-5.3,5.3-5.3h13.4
			c2.9,0,5.3,2.4,5.3,5.3V9.8z"/>
		<path class="st3" d="M20.1,36.6c0,2.9-2.4,5.3-5.3,5.3H1.5c-2.9,0-5.3-2.4-5.3-5.3V23.3c0-2.9,2.4-5.3,5.3-5.3h13.4
			c2.9,0,5.3,2.4,5.3,5.3V36.6z"/>
		<path class="st3" d="M20.1,63.4c0,2.9-2.4,5.3-5.3,5.3H1.5c-2.9,0-5.3-2.4-5.3-5.3V50.1c0-2.9,2.4-5.3,5.3-5.3h13.4
			c2.9,0,5.3,2.4,5.3,5.3V63.4z"/>
		<path class="st3" d="M20.1,90.2c0,2.9-2.4,5.3-5.3,5.3H1.5c-2.9,0-5.3-2.4-5.3-5.3V76.9c0-2.9,2.4-5.3,5.3-5.3h13.4
			c2.9,0,5.3,2.4,5.3,5.3V90.2z"/>
		<path class="st2" d="M46.9,9.8c0,2.9-2.4,5.3-5.3,5.3H28.3c-2.9,0-5.3-2.4-5.3-5.3V-3.5c0-2.9,2.4-5.3,5.3-5.3h13.4
			c2.9,0,5.3,2.4,5.3,5.3V9.8z"/>
		<path class="st3" d="M46.9,36.6c0,2.9-2.4,5.3-5.3,5.3H28.3c-2.9,0-5.3-2.4-5.3-5.3V23.3c0-2.9,2.4-5.3,5.3-5.3h13.4
			c2.9,0,5.3,2.4,5.3,5.3V36.6z"/>
		<path class="st3" d="M46.9,63.4c0,2.9-2.4,5.3-5.3,5.3H28.3c-2.9,0-5.3-2.4-5.3-5.3V50.1c0-2.9,2.4-5.3,5.3-5.3h13.4
			c2.9,0,5.3,2.4,5.3,5.3V63.4z"/>
		<path class="st3" d="M46.9,90.2c0,2.9-2.4,5.3-5.3,5.3H28.3c-2.9,0-5.3-2.4-5.3-5.3V76.9c0-2.9,2.4-5.3,5.3-5.3h13.4
			c2.9,0,5.3,2.4,5.3,5.3V90.2z"/>
		<path class="st3" d="M73.7,9.8c0,2.9-2.4,5.3-5.3,5.3H55.1c-2.9,0-5.3-2.4-5.3-5.3V-3.5c0-2.9,2.4-5.3,5.3-5.3h13.4
			c2.9,0,5.3,2.4,5.3,5.3V9.8z"/>
		<path class="st3" d="M73.7,36.6c0,2.9-2.4,5.3-5.3,5.3H55.1c-2.9,0-5.3-2.4-5.3-5.3V23.3c0-2.9,2.4-5.3,5.3-5.3h13.4
			c2.9,0,5.3,2.4,5.3,5.3V36.6z"/>
		<path class="st3" d="M73.7,63.4c0,2.9-2.4,5.3-5.3,5.3H55.1c-2.9,0-5.3-2.4-5.3-5.3V50.1c0-2.9,2.4-5.3,5.3-5.3h13.4
			c2.9,0,5.3,2.4,5.3,5.3V63.4z"/>
		<path class="st3" d="M73.7,90.2c0,2.9-2.4,5.3-5.3,5.3H55.1c-2.9,0-5.3-2.4-5.3-5.3V76.9c0-2.9,2.4-5.3,5.3-5.3h13.4
			c2.9,0,5.3,2.4,5.3,5.3V90.2z"/>
		<path class="st3" d="M100.5,9.8c0,2.9-2.4,5.3-5.3,5.3H81.9c-2.9,0-5.3-2.4-5.3-5.3V-3.5c0-2.9,2.4-5.3,5.3-5.3h13.3
			c2.9,0,5.3,2.4,5.3,5.3V9.8z"/>
		<path class="st3" d="M100.5,36.6c0,2.9-2.4,5.3-5.3,5.3H81.9c-2.9,0-5.3-2.4-5.3-5.3V23.3c0-2.9,2.4-5.3,5.3-5.3h13.3
			c2.9,0,5.3,2.4,5.3,5.3V36.6z"/>
		<path class="st3" d="M100.5,63.4c0,2.9-2.4,5.3-5.3,5.3H81.9c-2.9,0-5.3-2.4-5.3-5.3V50.1c0-2.9,2.4-5.3,5.3-5.3h13.3
			c2.9,0,5.3,2.4,5.3,5.3V63.4z"/>
		<path class="st3" d="M100.5,90.2c0,2.9-2.4,5.3-5.3,5.3H81.9c-2.9,0-5.3-2.4-5.3-5.3V76.9c0-2.9,2.4-5.3,5.3-5.3h13.3
			c2.9,0,5.3,2.4,5.3,5.3V90.2z"/>
		<path class="st3" d="M46.9,117c0,2.9-2.4,5.3-5.3,5.3H28.3c-2.9,0-5.3-2.4-5.3-5.3v-13.4c0-2.9,2.4-5.3,5.3-5.3h13.4
			c2.9,0,5.3,2.4,5.3,5.3V117z"/>
		<path class="st3" d="M100.5,117c0,2.9-2.4,5.3-5.3,5.3H81.9c-2.9,0-5.3-2.4-5.3-5.3v-13.4c0-2.9,2.4-5.3,5.3-5.3h13.3
			c2.9,0,5.3,2.4,5.3,5.3V117z"/>
	</g>
</g>
<g id="Layer_1_copy_6" class="st0">
	<g class="st1">
		<path class="st2" d="M20.1,9.8c0,2.9-2.4,5.3-5.3,5.3H1.5c-2.9,0-5.3-2.4-5.3-5.3V-3.5c0-2.9,2.4-5.3,5.3-5.3h13.4
			c2.9,0,5.3,2.4,5.3,5.3V9.8z"/>
		<path class="st3" d="M20.1,36.6c0,2.9-2.4,5.3-5.3,5.3H1.5c-2.9,0-5.3-2.4-5.3-5.3V23.3c0-2.9,2.4-5.3,5.3-5.3h13.4
			c2.9,0,5.3,2.4,5.3,5.3V36.6z"/>
		<path class="st3" d="M20.1,63.4c0,2.9-2.4,5.3-5.3,5.3H1.5c-2.9,0-5.3-2.4-5.3-5.3V50.1c0-2.9,2.4-5.3,5.3-5.3h13.4
			c2.9,0,5.3,2.4,5.3,5.3V63.4z"/>
		<path class="st3" d="M20.1,90.2c0,2.9-2.4,5.3-5.3,5.3H1.5c-2.9,0-5.3-2.4-5.3-5.3V76.9c0-2.9,2.4-5.3,5.3-5.3h13.4
			c2.9,0,5.3,2.4,5.3,5.3V90.2z"/>
		<path class="st2" d="M46.9,9.8c0,2.9-2.4,5.3-5.3,5.3H28.3c-2.9,0-5.3-2.4-5.3-5.3V-3.5c0-2.9,2.4-5.3,5.3-5.3h13.4
			c2.9,0,5.3,2.4,5.3,5.3V9.8z"/>
		<path class="st3" d="M46.9,36.6c0,2.9-2.4,5.3-5.3,5.3H28.3c-2.9,0-5.3-2.4-5.3-5.3V23.3c0-2.9,2.4-5.3,5.3-5.3h13.4
			c2.9,0,5.3,2.4,5.3,5.3V36.6z"/>
		<path class="st3" d="M46.9,63.4c0,2.9-2.4,5.3-5.3,5.3H28.3c-2.9,0-5.3-2.4-5.3-5.3V50.1c0-2.9,2.4-5.3,5.3-5.3h13.4
			c2.9,0,5.3,2.4,5.3,5.3V63.4z"/>
		<path class="st3" d="M46.9,90.2c0,2.9-2.4,5.3-5.3,5.3H28.3c-2.9,0-5.3-2.4-5.3-5.3V76.9c0-2.9,2.4-5.3,5.3-5.3h13.4
			c2.9,0,5.3,2.4,5.3,5.3V90.2z"/>
		<path class="st3" d="M73.7,9.8c0,2.9-2.4,5.3-5.3,5.3H55.1c-2.9,0-5.3-2.4-5.3-5.3V-3.5c0-2.9,2.4-5.3,5.3-5.3h13.4
			c2.9,0,5.3,2.4,5.3,5.3V9.8z"/>
		<path class="st3" d="M73.7,36.6c0,2.9-2.4,5.3-5.3,5.3H55.1c-2.9,0-5.3-2.4-5.3-5.3V23.3c0-2.9,2.4-5.3,5.3-5.3h13.4
			c2.9,0,5.3,2.4,5.3,5.3V36.6z"/>
		<path class="st3" d="M73.7,63.4c0,2.9-2.4,5.3-5.3,5.3H55.1c-2.9,0-5.3-2.4-5.3-5.3V50.1c0-2.9,2.4-5.3,5.3-5.3h13.4
			c2.9,0,5.3,2.4,5.3,5.3V63.4z"/>
		<path class="st3" d="M73.7,90.2c0,2.9-2.4,5.3-5.3,5.3H55.1c-2.9,0-5.3-2.4-5.3-5.3V76.9c0-2.9,2.4-5.3,5.3-5.3h13.4
			c2.9,0,5.3,2.4,5.3,5.3V90.2z"/>
		<path class="st3" d="M100.5,9.8c0,2.9-2.4,5.3-5.3,5.3H81.9c-2.9,0-5.3-2.4-5.3-5.3V-3.5c0-2.9,2.4-5.3,5.3-5.3h13.3
			c2.9,0,5.3,2.4,5.3,5.3V9.8z"/>
		<path class="st3" d="M100.5,36.6c0,2.9-2.4,5.3-5.3,5.3H81.9c-2.9,0-5.3-2.4-5.3-5.3V23.3c0-2.9,2.4-5.3,5.3-5.3h13.3
			c2.9,0,5.3,2.4,5.3,5.3V36.6z"/>
		<path class="st3" d="M100.5,63.4c0,2.9-2.4,5.3-5.3,5.3H81.9c-2.9,0-5.3-2.4-5.3-5.3V50.1c0-2.9,2.4-5.3,5.3-5.3h13.3
			c2.9,0,5.3,2.4,5.3,5.3V63.4z"/>
		<path class="st3" d="M100.5,90.2c0,2.9-2.4,5.3-5.3,5.3H81.9c-2.9,0-5.3-2.4-5.3-5.3V76.9c0-2.9,2.4-5.3,5.3-5.3h13.3
			c2.9,0,5.3,2.4,5.3,5.3V90.2z"/>
		<path class="st3" d="M46.9,117c0,2.9-2.4,5.3-5.3,5.3H28.3c-2.9,0-5.3-2.4-5.3-5.3v-13.4c0-2.9,2.4-5.3,5.3-5.3h13.4
			c2.9,0,5.3,2.4,5.3,5.3V117z"/>
		<path class="st3" d="M100.5,117c0,2.9-2.4,5.3-5.3,5.3H81.9c-2.9,0-5.3-2.4-5.3-5.3v-13.4c0-2.9,2.4-5.3,5.3-5.3h13.3
			c2.9,0,5.3,2.4,5.3,5.3V117z"/>
	</g>
</g>
<g id="Layer_1_copy_7" class="st0">
	<g class="st1">
		<path class="st2" d="M20.1,9.8c0,2.9-2.4,5.3-5.3,5.3H1.5c-2.9,0-5.3-2.4-5.3-5.3V-3.5c0-2.9,2.4-5.3,5.3-5.3h13.4
			c2.9,0,5.3,2.4,5.3,5.3V9.8z"/>
		<path class="st3" d="M20.1,36.6c0,2.9-2.4,5.3-5.3,5.3H1.5c-2.9,0-5.3-2.4-5.3-5.3V23.3c0-2.9,2.4-5.3,5.3-5.3h13.4
			c2.9,0,5.3,2.4,5.3,5.3V36.6z"/>
		<path class="st3" d="M20.1,63.4c0,2.9-2.4,5.3-5.3,5.3H1.5c-2.9,0-5.3-2.4-5.3-5.3V50.1c0-2.9,2.4-5.3,5.3-5.3h13.4
			c2.9,0,5.3,2.4,5.3,5.3V63.4z"/>
		<path class="st3" d="M20.1,90.2c0,2.9-2.4,5.3-5.3,5.3H1.5c-2.9,0-5.3-2.4-5.3-5.3V76.9c0-2.9,2.4-5.3,5.3-5.3h13.4
			c2.9,0,5.3,2.4,5.3,5.3V90.2z"/>
		<path class="st2" d="M46.9,9.8c0,2.9-2.4,5.3-5.3,5.3H28.3c-2.9,0-5.3-2.4-5.3-5.3V-3.5c0-2.9,2.4-5.3,5.3-5.3h13.4
			c2.9,0,5.3,2.4,5.3,5.3V9.8z"/>
		<path class="st3" d="M46.9,36.6c0,2.9-2.4,5.3-5.3,5.3H28.3c-2.9,0-5.3-2.4-5.3-5.3V23.3c0-2.9,2.4-5.3,5.3-5.3h13.4
			c2.9,0,5.3,2.4,5.3,5.3V36.6z"/>
		<path class="st3" d="M46.9,63.4c0,2.9-2.4,5.3-5.3,5.3H28.3c-2.9,0-5.3-2.4-5.3-5.3V50.1c0-2.9,2.4-5.3,5.3-5.3h13.4
			c2.9,0,5.3,2.4,5.3,5.3V63.4z"/>
		<path class="st3" d="M46.9,90.2c0,2.9-2.4,5.3-5.3,5.3H28.3c-2.9,0-5.3-2.4-5.3-5.3V76.9c0-2.9,2.4-5.3,5.3-5.3h13.4
			c2.9,0,5.3,2.4,5.3,5.3V90.2z"/>
		<path class="st3" d="M73.7,9.8c0,2.9-2.4,5.3-5.3,5.3H55.1c-2.9,0-5.3-2.4-5.3-5.3V-3.5c0-2.9,2.4-5.3,5.3-5.3h13.4
			c2.9,0,5.3,2.4,5.3,5.3V9.8z"/>
		<path class="st3" d="M73.7,36.6c0,2.9-2.4,5.3-5.3,5.3H55.1c-2.9,0-5.3-2.4-5.3-5.3V23.3c0-2.9,2.4-5.3,5.3-5.3h13.4
			c2.9,0,5.3,2.4,5.3,5.3V36.6z"/>
		<path class="st3" d="M73.7,63.4c0,2.9-2.4,5.3-5.3,5.3H55.1c-2.9,0-5.3-2.4-5.3-5.3V50.1c0-2.9,2.4-5.3,5.3-5.3h13.4
			c2.9,0,5.3,2.4,5.3,5.3V63.4z"/>
		<path class="st3" d="M73.7,90.2c0,2.9-2.4,5.3-5.3,5.3H55.1c-2.9,0-5.3-2.4-5.3-5.3V76.9c0-2.9,2.4-5.3,5.3-5.3h13.4
			c2.9,0,5.3,2.4,5.3,5.3V90.2z"/>
		<path class="st3" d="M100.5,9.8c0,2.9-2.4,5.3-5.3,5.3H81.9c-2.9,0-5.3-2.4-5.3-5.3V-3.5c0-2.9,2.4-5.3,5.3-5.3h13.3
			c2.9,0,5.3,2.4,5.3,5.3V9.8z"/>
		<path class="st3" d="M100.5,36.6c0,2.9-2.4,5.3-5.3,5.3H81.9c-2.9,0-5.3-2.4-5.3-5.3V23.3c0-2.9,2.4-5.3,5.3-5.3h13.3
			c2.9,0,5.3,2.4,5.3,5.3V36.6z"/>
		<path class="st3" d="M100.5,63.4c0,2.9-2.4,5.3-5.3,5.3H81.9c-2.9,0-5.3-2.4-5.3-5.3V50.1c0-2.9,2.4-5.3,5.3-5.3h13.3
			c2.9,0,5.3,2.4,5.3,5.3V63.4z"/>
		<path class="st3" d="M100.5,90.2c0,2.9-2.4,5.3-5.3,5.3H81.9c-2.9,0-5.3-2.4-5.3-5.3V76.9c0-2.9,2.4-5.3,5.3-5.3h13.3
			c2.9,0,5.3,2.4,5.3,5.3V90.2z"/>
		<path class="st3" d="M46.9,117c0,2.9-2.4,5.3-5.3,5.3H28.3c-2.9,0-5.3-2.4-5.3-5.3v-13.4c0-2.9,2.4-5.3,5.3-5.3h13.4
			c2.9,0,5.3,2.4,5.3,5.3V117z"/>
		<path class="st3" d="M100.5,117c0,2.9-2.4,5.3-5.3,5.3H81.9c-2.9,0-5.3-2.4-5.3-5.3v-13.4c0-2.9,2.4-5.3,5.3-5.3h13.3
			c2.9,0,5.3,2.4,5.3,5.3V117z"/>
	</g>
</g>
</svg>
