<?xml version="1.0" encoding="utf-8"?>
<!-- Generator: Adobe Illustrator 27.0.0, SVG Export Plug-In . SVG Version: 6.00 Build 0)  -->
<svg version="1.1" id="Layer_1" xmlns="http://www.w3.org/2000/svg" xmlns:xlink="http://www.w3.org/1999/xlink" x="0px" y="0px"
	 width="200px" height="50px" viewBox="0 0 200 50" style="enable-background:new 0 0 200 50;" xml:space="preserve">
<style type="text/css">
	.st0{fill:#CE0E2D;}
	.st1{fill:#002E6D;}
</style>
<g>
	<g>
		<path class="st0" d="M14.7,20.4c0,0.3-0.3,0.6-0.6,0.6h-1.5c-0.3,0-0.6-0.3-0.6-0.6v-1.5c0-0.3,0.3-0.6,0.6-0.6H14
			c0.3,0,0.6,0.3,0.6,0.6V20.4z"/>
		<path class="st1" d="M14.7,23.5c0,0.3-0.3,0.6-0.6,0.6h-1.5c-0.3,0-0.6-0.3-0.6-0.6V22c0-0.3,0.3-0.6,0.6-0.6H14
			c0.3,0,0.6,0.3,0.6,0.6V23.5z"/>
		<path class="st1" d="M14.7,26.6c0,0.3-0.3,0.6-0.6,0.6h-1.5c-0.3,0-0.6-0.3-0.6-0.6v-1.5c0-0.3,0.3-0.6,0.6-0.6H14
			c0.3,0,0.6,0.3,0.6,0.6V26.6z"/>
		<path class="st1" d="M14.7,29.7c0,0.3-0.3,0.6-0.6,0.6h-1.5c-0.3,0-0.6-0.3-0.6-0.6v-1.5c0-0.3,0.3-0.6,0.6-0.6H14
			c0.3,0,0.6,0.3,0.6,0.6V29.7z"/>
		<path class="st1" d="M14.7,32.8c0,0.3-0.3,0.6-0.6,0.6h-1.5c-0.3,0-0.6-0.3-0.6-0.6v-1.5c0-0.3,0.3-0.6,0.6-0.6H14
			c0.3,0,0.6,0.3,0.6,0.6V32.8z"/>
		<path class="st0" d="M17.8,14.2c0,0.3-0.3,0.6-0.6,0.6h-1.5c-0.3,0-0.6-0.3-0.6-0.6v-1.5c0-0.3,0.3-0.6,0.6-0.6h1.5
			c0.3,0,0.6,0.3,0.6,0.6V14.2z"/>
		<path class="st0" d="M17.8,17.3c0,0.3-0.3,0.6-0.6,0.6h-1.5c-0.3,0-0.6-0.3-0.6-0.6v-1.5c0-0.3,0.3-0.6,0.6-0.6h1.5
			c0.3,0,0.6,0.3,0.6,0.6V17.3z"/>
		<path class="st0" d="M17.8,20.4c0,0.3-0.3,0.6-0.6,0.6h-1.5c-0.3,0-0.6-0.3-0.6-0.6v-1.5c0-0.3,0.3-0.6,0.6-0.6h1.5
			c0.3,0,0.6,0.3,0.6,0.6V20.4z"/>
		<path class="st0" d="M17.8,23.5c0,0.3-0.3,0.6-0.6,0.6h-1.5c-0.3,0-0.6-0.3-0.6-0.6V22c0-0.3,0.3-0.6,0.6-0.6h1.5
			c0.3,0,0.6,0.3,0.6,0.6V23.5z"/>
		<path class="st1" d="M17.8,26.6c0,0.3-0.3,0.6-0.6,0.6h-1.5c-0.3,0-0.6-0.3-0.6-0.6v-1.5c0-0.3,0.3-0.6,0.6-0.6h1.5
			c0.3,0,0.6,0.3,0.6,0.6V26.6z"/>
		<path class="st1" d="M17.8,29.7c0,0.3-0.3,0.6-0.6,0.6h-1.5c-0.3,0-0.6-0.3-0.6-0.6v-1.5c0-0.3,0.3-0.6,0.6-0.6h1.5
			c0.3,0,0.6,0.3,0.6,0.6V29.7z"/>
		<path class="st1" d="M17.8,32.8c0,0.3-0.3,0.6-0.6,0.6h-1.5c-0.3,0-0.6-0.3-0.6-0.6v-1.5c0-0.3,0.3-0.6,0.6-0.6h1.5
			c0.3,0,0.6,0.3,0.6,0.6V32.8z"/>
		<path class="st1" d="M17.8,35.9c0,0.3-0.3,0.6-0.6,0.6h-1.5c-0.3,0-0.6-0.3-0.6-0.6v-1.5c0-0.3,0.3-0.6,0.6-0.6h1.5
			c0.3,0,0.6,0.3,0.6,0.6V35.9z"/>
		<path class="st0" d="M20.9,17.3c0,0.3-0.3,0.6-0.6,0.6h-1.5c-0.3,0-0.6-0.3-0.6-0.6v-1.5c0-0.3,0.3-0.6,0.6-0.6h1.5
			c0.3,0,0.6,0.3,0.6,0.6V17.3z"/>
		<path class="st0" d="M20.9,20.4c0,0.3-0.3,0.6-0.6,0.6h-1.5c-0.3,0-0.6-0.3-0.6-0.6v-1.5c0-0.3,0.3-0.6,0.6-0.6h1.5
			c0.3,0,0.6,0.3,0.6,0.6V20.4z"/>
		<path class="st0" d="M20.9,23.5c0,0.3-0.3,0.6-0.6,0.6h-1.5c-0.3,0-0.6-0.3-0.6-0.6V22c0-0.3,0.3-0.6,0.6-0.6h1.5
			c0.3,0,0.6,0.3,0.6,0.6V23.5z"/>
		<path class="st0" d="M20.9,26.6c0,0.3-0.3,0.6-0.6,0.6h-1.5c-0.3,0-0.6-0.3-0.6-0.6v-1.5c0-0.3,0.3-0.6,0.6-0.6h1.5
			c0.3,0,0.6,0.3,0.6,0.6V26.6z"/>
		<path class="st1" d="M20.9,29.7c0,0.3-0.3,0.6-0.6,0.6h-1.5c-0.3,0-0.6-0.3-0.6-0.6v-1.5c0-0.3,0.3-0.6,0.6-0.6h1.5
			c0.3,0,0.6,0.3,0.6,0.6V29.7z"/>
		<path class="st1" d="M20.9,32.8c0,0.3-0.3,0.6-0.6,0.6h-1.5c-0.3,0-0.6-0.3-0.6-0.6v-1.5c0-0.3,0.3-0.6,0.6-0.6h1.5
			c0.3,0,0.6,0.3,0.6,0.6V32.8z"/>
		<path class="st1" d="M20.9,35.9c0,0.3-0.3,0.6-0.6,0.6h-1.5c-0.3,0-0.6-0.3-0.6-0.6v-1.5c0-0.3,0.3-0.6,0.6-0.6h1.5
			c0.3,0,0.6,0.3,0.6,0.6V35.9z"/>
		<path class="st0" d="M24,14.2c0,0.3-0.3,0.6-0.6,0.6h-1.5c-0.3,0-0.6-0.3-0.6-0.6v-1.5c0-0.3,0.3-0.6,0.6-0.6h1.5
			c0.3,0,0.6,0.3,0.6,0.6V14.2z"/>
		<path class="st0" d="M24,17.3c0,0.3-0.3,0.6-0.6,0.6h-1.5c-0.3,0-0.6-0.3-0.6-0.6v-1.5c0-0.3,0.3-0.6,0.6-0.6h1.5
			c0.3,0,0.6,0.3,0.6,0.6V17.3z"/>
		<path class="st0" d="M24,20.4c0,0.3-0.3,0.6-0.6,0.6h-1.5c-0.3,0-0.6-0.3-0.6-0.6v-1.5c0-0.3,0.3-0.6,0.6-0.6h1.5
			c0.3,0,0.6,0.3,0.6,0.6V20.4z"/>
		<path class="st0" d="M24,23.5c0,0.3-0.3,0.6-0.6,0.6h-1.5c-0.3,0-0.6-0.3-0.6-0.6V22c0-0.3,0.3-0.6,0.6-0.6h1.5
			c0.3,0,0.6,0.3,0.6,0.6V23.5z"/>
		<path class="st0" d="M24,26.6c0,0.3-0.3,0.6-0.6,0.6h-1.5c-0.3,0-0.6-0.3-0.6-0.6v-1.5c0-0.3,0.3-0.6,0.6-0.6h1.5
			c0.3,0,0.6,0.3,0.6,0.6V26.6z"/>
		<path class="st1" d="M24,29.7c0,0.3-0.3,0.6-0.6,0.6h-1.5c-0.3,0-0.6-0.3-0.6-0.6v-1.5c0-0.3,0.3-0.6,0.6-0.6h1.5
			c0.3,0,0.6,0.3,0.6,0.6V29.7z"/>
		<path class="st1" d="M24,32.8c0,0.3-0.3,0.6-0.6,0.6h-1.5c-0.3,0-0.6-0.3-0.6-0.6v-1.5c0-0.3,0.3-0.6,0.6-0.6h1.5
			c0.3,0,0.6,0.3,0.6,0.6V32.8z"/>
		<path class="st1" d="M24,35.9c0,0.3-0.3,0.6-0.6,0.6h-1.5c-0.3,0-0.6-0.3-0.6-0.6v-1.5c0-0.3,0.3-0.6,0.6-0.6h1.5
			c0.3,0,0.6,0.3,0.6,0.6V35.9z"/>
		<path class="st0" d="M27.1,14.2c0,0.3-0.3,0.6-0.6,0.6h-1.5c-0.3,0-0.6-0.3-0.6-0.6v-1.5c0-0.3,0.3-0.6,0.6-0.6h1.5
			c0.3,0,0.6,0.3,0.6,0.6V14.2z"/>
		<path class="st0" d="M27.1,11.1c0,0.3-0.3,0.6-0.6,0.6h-1.5c-0.3,0-0.6-0.3-0.6-0.6V9.6c0-0.3,0.3-0.6,0.6-0.6h1.5
			c0.3,0,0.6,0.3,0.6,0.6V11.1z"/>
		<path class="st0" d="M27.1,8c0,0.3-0.3,0.6-0.6,0.6h-1.5c-0.3,0-0.6-0.3-0.6-0.6V6.5c0-0.3,0.3-0.6,0.6-0.6h1.5
			c0.3,0,0.6,0.3,0.6,0.6V8z"/>
		<path class="st0" d="M27.1,17.3c0,0.3-0.3,0.6-0.6,0.6h-1.5c-0.3,0-0.6-0.3-0.6-0.6v-1.5c0-0.3,0.3-0.6,0.6-0.6h1.5
			c0.3,0,0.6,0.3,0.6,0.6V17.3z"/>
		<path class="st0" d="M27.1,20.4c0,0.3-0.3,0.6-0.6,0.6h-1.5c-0.3,0-0.6-0.3-0.6-0.6v-1.5c0-0.3,0.3-0.6,0.6-0.6h1.5
			c0.3,0,0.6,0.3,0.6,0.6V20.4z"/>
		<path class="st0" d="M27.1,23.5c0,0.3-0.3,0.6-0.6,0.6h-1.5c-0.3,0-0.6-0.3-0.6-0.6V22c0-0.3,0.3-0.6,0.6-0.6h1.5
			c0.3,0,0.6,0.3,0.6,0.6V23.5z"/>
		<path class="st1" d="M27.1,26.6c0,0.3-0.3,0.6-0.6,0.6h-1.5c-0.3,0-0.6-0.3-0.6-0.6v-1.5c0-0.3,0.3-0.6,0.6-0.6h1.5
			c0.3,0,0.6,0.3,0.6,0.6V26.6z"/>
		<path class="st1" d="M27.1,29.7c0,0.3-0.3,0.6-0.6,0.6h-1.5c-0.3,0-0.6-0.3-0.6-0.6v-1.5c0-0.3,0.3-0.6,0.6-0.6h1.5
			c0.3,0,0.6,0.3,0.6,0.6V29.7z"/>
		<path class="st1" d="M27.1,32.8c0,0.3-0.3,0.6-0.6,0.6h-1.5c-0.3,0-0.6-0.3-0.6-0.6v-1.5c0-0.3,0.3-0.6,0.6-0.6h1.5
			c0.3,0,0.6,0.3,0.6,0.6V32.8z"/>
		<path class="st1" d="M27.1,35.9c0,0.3-0.3,0.6-0.6,0.6h-1.5c-0.3,0-0.6-0.3-0.6-0.6v-1.5c0-0.3,0.3-0.6,0.6-0.6h1.5
			c0.3,0,0.6,0.3,0.6,0.6V35.9z"/>
		<path class="st0" d="M30.2,17.3c0,0.3-0.3,0.6-0.6,0.6H28c-0.3,0-0.6-0.3-0.6-0.6v-1.5c0-0.3,0.3-0.6,0.6-0.6h1.5
			c0.3,0,0.6,0.3,0.6,0.6V17.3z"/>
		<path class="st0" d="M30.2,20.4c0,0.3-0.3,0.6-0.6,0.6H28c-0.3,0-0.6-0.3-0.6-0.6v-1.5c0-0.3,0.3-0.6,0.6-0.6h1.5
			c0.3,0,0.6,0.3,0.6,0.6V20.4z"/>
		<path class="st1" d="M30.2,23.5c0,0.3-0.3,0.6-0.6,0.6H28c-0.3,0-0.6-0.3-0.6-0.6V22c0-0.3,0.3-0.6,0.6-0.6h1.5
			c0.3,0,0.6,0.3,0.6,0.6V23.5z"/>
		<path class="st1" d="M30.2,26.6c0,0.3-0.3,0.6-0.6,0.6H28c-0.3,0-0.6-0.3-0.6-0.6v-1.5c0-0.3,0.3-0.6,0.6-0.6h1.5
			c0.3,0,0.6,0.3,0.6,0.6V26.6z"/>
		<path class="st1" d="M30.2,29.7c0,0.3-0.3,0.6-0.6,0.6H28c-0.3,0-0.6-0.3-0.6-0.6v-1.5c0-0.3,0.3-0.6,0.6-0.6h1.5
			c0.3,0,0.6,0.3,0.6,0.6V29.7z"/>
		<path class="st1" d="M30.2,32.8c0,0.3-0.3,0.6-0.6,0.6H28c-0.3,0-0.6-0.3-0.6-0.6v-1.5c0-0.3,0.3-0.6,0.6-0.6h1.5
			c0.3,0,0.6,0.3,0.6,0.6V32.8z"/>
		<path class="st1" d="M30.2,35.9c0,0.3-0.3,0.6-0.6,0.6H28c-0.3,0-0.6-0.3-0.6-0.6v-1.5c0-0.3,0.3-0.6,0.6-0.6h1.5
			c0.3,0,0.6,0.3,0.6,0.6V35.9z"/>
		<path class="st0" d="M33.3,14.2c0,0.3-0.3,0.6-0.6,0.6h-1.5c-0.3,0-0.6-0.3-0.6-0.6v-1.5c0-0.3,0.3-0.6,0.6-0.6h1.5
			c0.3,0,0.6,0.3,0.6,0.6V14.2z"/>
		<path class="st0" d="M33.3,17.3c0,0.3-0.3,0.6-0.6,0.6h-1.5c-0.3,0-0.6-0.3-0.6-0.6v-1.5c0-0.3,0.3-0.6,0.6-0.6h1.5
			c0.3,0,0.6,0.3,0.6,0.6V17.3z"/>
		<path class="st0" d="M33.3,20.4c0,0.3-0.3,0.6-0.6,0.6h-1.5c-0.3,0-0.6-0.3-0.6-0.6v-1.5c0-0.3,0.3-0.6,0.6-0.6h1.5
			c0.3,0,0.6,0.3,0.6,0.6V20.4z"/>
		<path class="st1" d="M33.3,23.5c0,0.3-0.3,0.6-0.6,0.6h-1.5c-0.3,0-0.6-0.3-0.6-0.6V22c0-0.3,0.3-0.6,0.6-0.6h1.5
			c0.3,0,0.6,0.3,0.6,0.6V23.5z"/>
		<path class="st1" d="M33.3,26.6c0,0.3-0.3,0.6-0.6,0.6h-1.5c-0.3,0-0.6-0.3-0.6-0.6v-1.5c0-0.3,0.3-0.6,0.6-0.6h1.5
			c0.3,0,0.6,0.3,0.6,0.6V26.6z"/>
		<path class="st1" d="M33.3,29.7c0,0.3-0.3,0.6-0.6,0.6h-1.5c-0.3,0-0.6-0.3-0.6-0.6v-1.5c0-0.3,0.3-0.6,0.6-0.6h1.5
			c0.3,0,0.6,0.3,0.6,0.6V29.7z"/>
		<path class="st1" d="M33.3,32.8c0,0.3-0.3,0.6-0.6,0.6h-1.5c-0.3,0-0.6-0.3-0.6-0.6v-1.5c0-0.3,0.3-0.6,0.6-0.6h1.5
			c0.3,0,0.6,0.3,0.6,0.6V32.8z"/>
		<path class="st1" d="M33.3,35.9c0,0.3-0.3,0.6-0.6,0.6h-1.5c-0.3,0-0.6-0.3-0.6-0.6v-1.5c0-0.3,0.3-0.6,0.6-0.6h1.5
			c0.3,0,0.6,0.3,0.6,0.6V35.9z"/>
		<path class="st0" d="M39.5,23.5c0,0.3-0.3,0.6-0.6,0.6h-1.5c-0.3,0-0.6-0.3-0.6-0.6V22c0-0.3,0.3-0.6,0.6-0.6h1.5
			c0.3,0,0.6,0.3,0.6,0.6V23.5z"/>
		<path class="st1" d="M39.5,26.6c0,0.3-0.3,0.6-0.6,0.6h-1.5c-0.3,0-0.6-0.3-0.6-0.6v-1.5c0-0.3,0.3-0.6,0.6-0.6h1.5
			c0.3,0,0.6,0.3,0.6,0.6V26.6z"/>
		<path class="st0" d="M36.4,20.4c0,0.3-0.3,0.6-0.6,0.6h-1.5c-0.3,0-0.6-0.3-0.6-0.6v-1.5c0-0.3,0.3-0.6,0.6-0.6h1.5
			c0.3,0,0.6,0.3,0.6,0.6V20.4z"/>
		<path class="st0" d="M36.4,23.5c0,0.3-0.3,0.6-0.6,0.6h-1.5c-0.3,0-0.6-0.3-0.6-0.6V22c0-0.3,0.3-0.6,0.6-0.6h1.5
			c0.3,0,0.6,0.3,0.6,0.6V23.5z"/>
		<path class="st1" d="M36.4,26.6c0,0.3-0.3,0.6-0.6,0.6h-1.5c-0.3,0-0.6-0.3-0.6-0.6v-1.5c0-0.3,0.3-0.6,0.6-0.6h1.5
			c0.3,0,0.6,0.3,0.6,0.6V26.6z"/>
		<path class="st1" d="M36.4,29.7c0,0.3-0.3,0.6-0.6,0.6h-1.5c-0.3,0-0.6-0.3-0.6-0.6v-1.5c0-0.3,0.3-0.6,0.6-0.6h1.5
			c0.3,0,0.6,0.3,0.6,0.6V29.7z"/>
		<path class="st1" d="M36.4,32.8c0,0.3-0.3,0.6-0.6,0.6h-1.5c-0.3,0-0.6-0.3-0.6-0.6v-1.5c0-0.3,0.3-0.6,0.6-0.6h1.5
			c0.3,0,0.6,0.3,0.6,0.6V32.8z"/>
		<path class="st1" d="M11.6,26.6c0,0.3-0.3,0.6-0.6,0.6H9.4c-0.3,0-0.6-0.3-0.6-0.6v-1.5c0-0.3,0.3-0.6,0.6-0.6h1.5
			c0.3,0,0.6,0.3,0.6,0.6V26.6z"/>
		<path class="st1" d="M24,39c0,0.3-0.3,0.6-0.6,0.6h-1.5c-0.3,0-0.6-0.3-0.6-0.6v-1.5c0-0.3,0.3-0.6,0.6-0.6h1.5
			c0.3,0,0.6,0.3,0.6,0.6V39z"/>
		<path class="st1" d="M30.2,42.1c0,0.3-0.3,0.6-0.6,0.6H28c-0.3,0-0.6-0.3-0.6-0.6v-1.5c0-0.3,0.3-0.6,0.6-0.6h1.5
			c0.3,0,0.6,0.3,0.6,0.6V42.1z"/>
		<path class="st1" d="M30.2,39c0,0.3-0.3,0.6-0.6,0.6H28c-0.3,0-0.6-0.3-0.6-0.6v-1.5c0-0.3,0.3-0.6,0.6-0.6h1.5
			c0.3,0,0.6,0.3,0.6,0.6V39z"/>
		<path class="st1" d="M33.3,39c0,0.3-0.3,0.6-0.6,0.6h-1.5c-0.3,0-0.6-0.3-0.6-0.6v-1.5c0-0.3,0.3-0.6,0.6-0.6h1.5
			c0.3,0,0.6,0.3,0.6,0.6V39z"/>
	</g>
	<g>
		<g>
			<path class="st1" d="M116.2,19.6c1.2,1.1,1.7,2.3,1.7,3.9v6.3v0.2c0,1.5-0.6,2.8-1.7,3.9c-1.2,1.1-2.6,1.6-4.2,1.6h-0.4
				c-1.6,0-3-0.5-4.2-1.6c-1.2-1.1-1.7-2.4-1.7-3.9v-0.2c0-1.5,0.6-2.8,1.8-3.9c1.2-1.1,2.6-1.6,4.2-1.6h0.4c1.1,0,2.2,0.3,3.1,0.8
				c0.3,0.2,0.6,0.4,0.9,0.6c0.3,0.2,0.5,0.4,0.5,0.5v-2.8c0-1.2-0.4-2.1-1.3-2.9c-0.9-0.8-1.9-1.2-3.1-1.2c-1.2,0-2.3,0.4-3.1,1.2
				c-0.5,0.4-0.8,0.9-1,1.5c-0.2,0.5-0.3,1.1-0.3,1.7H106c0-0.8,0.2-1.6,0.4-2.3c0.3-0.7,0.7-1.3,1.4-1.9c1.1-1,2.5-1.6,4.2-1.6
				C113.6,18,115,18.5,116.2,19.6z M108.4,26.8c-0.9,0.8-1.3,1.8-1.3,2.9v0.2c0,1.1,0.4,2.1,1.3,2.9c0.9,0.8,1.9,1.2,3.2,1.2h0.4
				c1.3,0,2.3-0.4,3.2-1.2c0.9-0.8,1.3-1.8,1.3-2.9v-0.2c0-1.2-0.4-2.1-1.3-2.9c-0.9-0.8-1.9-1.2-3.2-1.2h-0.4
				C110.3,25.6,109.3,26,108.4,26.8z"/>
			<path class="st1" d="M121.9,11.8V35h-1.5V11.8H121.9z"/>
			<path class="st1" d="M130.4,35.4c-1.6,0-3-0.5-4.2-1.6c-1.2-1.1-1.7-2.4-1.7-3.9v-0.1v-6.3V12.2h1.5v7.7c0-0.1,0.1-0.2,0.4-0.5
				c0.3-0.3,0.6-0.5,0.9-0.6c1-0.5,2-0.8,3.1-0.8h0.4c1.6,0,3,0.5,4.2,1.6c1.2,1.1,1.7,2.3,1.7,3.9v6.5c0,1.5-0.6,2.8-1.7,3.9
				c-1.2,1.1-2.6,1.6-4.2,1.6H130.4z M134,32.8c0.8-0.8,1.3-1.8,1.2-2.9v-6.5c0-1.2-0.4-2.1-1.3-2.9c-0.9-0.8-1.9-1.2-3.2-1.2h-0.4
				c-1.2,0-2.3,0.4-3.2,1.2c-0.9,0.8-1.3,1.8-1.3,2.9v6.3v0.1c0,1.1,0.4,2.1,1.3,2.9c0.9,0.8,1.9,1.2,3.2,1.2h0.4h0.1
				C132.1,34,133.1,33.6,134,32.8z"/>
			<path class="st1" d="M140.3,18.4v11.5c0,1.1,0.4,2.1,1.3,2.9c0.9,0.8,1.9,1.2,3.2,1.2h0.4c1.3,0,2.3-0.4,3.2-1.2
				c0.9-0.8,1.3-1.8,1.3-2.9V18.4h1.5v11.5c0,1.5-0.6,2.8-1.7,3.9c-1.1,1.1-2.5,1.6-4.2,1.6h-0.4c-1.6,0-3-0.5-4.2-1.6
				c-1.2-1.1-1.7-2.4-1.7-3.9V18.4H140.3z"/>
			<path class="st1" d="M153.2,23.4c0-1.5,0.5-2.8,1.6-3.9c1.1-1,2.5-1.6,4.1-1.6c1.3,0,2.4,0.3,3.3,1c0.3,0.2,0.7,0.5,1,0.8
				c0.3,0.3,0.5,0.6,0.6,0.8c0.1-0.2,0.3-0.5,0.6-0.8s0.7-0.6,1-0.8c1-0.7,2.1-1,3.3-1c1.6,0,3,0.5,4.1,1.6c1.1,1,1.6,2.3,1.6,3.9
				V35h-1.5V23.4c0-1.2-0.4-2.2-1.2-2.9c-0.8-0.8-1.8-1.2-3-1.2c-1.2,0-2.2,0.4-3,1.2c-0.8,0.8-1.2,1.7-1.2,2.9v0.1V35h-1.5V23.4
				v-0.1c0-1.1-0.4-2.1-1.2-2.9c-0.8-0.8-1.8-1.2-3-1.2c-1.2,0-2.2,0.4-3.1,1.2c-0.8,0.8-1.2,1.8-1.2,2.9V35h-1.5V23.4z"/>
			<path class="st1" d="M182.5,17.9c1.6,0,2.9,0.3,3.8,1c0.6,0.4,1,0.8,1.4,1.4c0.4,0.7,0.6,1.4,0.6,2.2h-1.4
				c-0.1-0.6-0.2-1.1-0.5-1.6c-0.2-0.4-0.5-0.7-0.9-0.9c-0.7-0.5-1.7-0.7-2.9-0.7c-1.2,0-2.2,0.3-3,0.8c-0.8,0.6-1.2,1.3-1.2,2.1
				c0,0.7,0.3,1.3,0.8,1.7c0.3,0.2,0.9,0.5,1.8,0.8c0.5,0.2,1.2,0.4,2,0.6c0.9,0.2,1.5,0.4,1.8,0.5c1.5,0.5,2.6,1.1,3.3,1.9
				c0.7,0.8,0.9,1.8,0.8,3.2c-0.2,1.5-0.8,2.6-1.8,3.4c-1,0.8-2.4,1.2-4.2,1.1c-1.7,0-3.1-0.4-4.2-1.2c-0.5-0.4-1-0.9-1.3-1.5
				c-0.3-0.6-0.5-1.3-0.7-2.3l1.5-0.1c0,0.6,0.2,1.2,0.5,1.8c0.2,0.4,0.5,0.7,0.9,1c0.8,0.6,1.9,0.9,3.3,0.9c1.4,0,2.5-0.2,3.3-0.8
				c0.8-0.6,1.2-1.4,1.3-2.5c0.1-0.9,0-1.7-0.5-2.2c-0.5-0.6-1.4-1.1-2.6-1.5c-0.2-0.1-0.8-0.2-1.8-0.5c-0.9-0.3-1.6-0.5-2.2-0.7
				c-1-0.4-1.8-0.7-2.2-1c-0.9-0.7-1.4-1.7-1.4-2.8c0-1.3,0.7-2.3,1.8-3.2C179.6,18.2,180.9,17.9,182.5,17.9z"/>
		</g>
		<g>
			<path class="st0" d="M73.4,19.6c1.2,1.1,1.7,2.3,1.7,3.9v6.5c0,1.5-0.6,2.8-1.7,3.9c-1.2,1.1-2.6,1.6-4.2,1.6h-0.4
				c-1.1,0-2.2-0.3-3.1-0.8c-0.3-0.2-0.6-0.4-0.9-0.6c-0.3-0.3-0.5-0.4-0.5-0.5v7.7h-1.5V29.9v-6.3v-0.1c0-1.5,0.6-2.8,1.7-3.9
				c1.2-1.1,2.6-1.6,4.2-1.6h0.4C70.8,18,72.2,18.5,73.4,19.6z M69.2,19.3h-0.4c-1.2,0-2.3,0.4-3.2,1.2c-0.9,0.8-1.3,1.8-1.3,2.9
				v0.1v6.3c0,1.1,0.4,2.1,1.3,2.9c0.9,0.8,1.9,1.2,3.2,1.2h0.4c1.3,0,2.3-0.4,3.2-1.2c0.9-0.8,1.3-1.8,1.3-2.9v-6.5
				c0-1.1-0.4-2.1-1.3-2.9c-0.8-0.8-1.9-1.2-3.1-1.2H69.2z"/>
			<path class="st0" d="M83.6,18c1.6,0,3,0.5,4.2,1.6c1.2,1.1,1.7,2.3,1.7,3.9v6.5c0,1.5-0.6,2.8-1.7,3.9c-1.2,1.1-2.6,1.6-4.2,1.6
				h-0.4c-1.6,0-3-0.5-4.2-1.6c-1.2-1.1-1.7-2.4-1.7-3.9v-6.5c0-1.5,0.6-2.8,1.7-3.9s2.6-1.6,4.2-1.6H83.6z M80,20.5
				c-0.9,0.8-1.3,1.8-1.3,2.9v6.5c0,1.1,0.4,2.1,1.3,2.9c0.9,0.8,1.9,1.2,3.2,1.2h0.4c1.3,0,2.3-0.4,3.2-1.2
				c0.9-0.8,1.3-1.8,1.3-2.9v-6.5c0-1.2-0.4-2.1-1.3-2.9c-0.9-0.8-1.9-1.2-3.2-1.2h-0.4C81.9,19.3,80.9,19.7,80,20.5z"/>
			<path class="st0" d="M102.1,19.6c1.2,1.1,1.7,2.3,1.7,3.9v6.5c0,1.5-0.6,2.8-1.7,3.9c-1.2,1.1-2.6,1.6-4.2,1.6h-0.4
				c-1.1,0-2.2-0.3-3.1-0.8c-0.3-0.2-0.6-0.4-0.9-0.6c-0.3-0.3-0.5-0.4-0.5-0.5v7.7h-1.5V29.9v-6.3v-0.1c0-1.5,0.6-2.8,1.7-3.9
				s2.6-1.6,4.2-1.6h0.4C99.6,18,101,18.5,102.1,19.6z M97.9,19.3h-0.4c-1.2,0-2.3,0.4-3.2,1.2c-0.9,0.8-1.3,1.8-1.3,2.9v0.1v6.3
				c0,1.1,0.4,2.1,1.3,2.9c0.9,0.8,1.9,1.2,3.2,1.2h0.4c1.3,0,2.3-0.4,3.2-1.2c0.9-0.8,1.3-1.8,1.3-2.9v-6.5c0-1.1-0.4-2.1-1.3-2.9
				c-0.8-0.8-1.9-1.2-3.1-1.2H97.9z"/>
		</g>
		<g>
			<g>
				<path class="st0" d="M50.7,12.2v16.1l8.7-9.5h1.9l-7.9,8.4l8.6,8.2h-2l-7.5-7.2L50.7,30v5.3h-1.5V12.2H50.7z"/>
			</g>
		</g>
	</g>
</g>
</svg>
